<svg xmlns="http://www.w3.org/2000/svg" xmlns:xlink="http://www.w3.org/1999/xlink" width="461" zoomAndPan="magnify" viewBox="0 0 345.75 99.749996" height="133" preserveAspectRatio="xMidYMid meet" version="1.0"><defs><clipPath id="358e843ce1"><path d="M 0.308594 0 L 345.191406 0 L 345.191406 99.5 L 0.308594 99.5 Z M 0.308594 0 " clip-rule="nonzero"/></clipPath><clipPath id="887f1d039c"><path d="M 183.765625 82 L 186.667969 82 L 186.667969 84.171875 L 183.765625 84.171875 Z M 183.765625 82 " clip-rule="nonzero"/></clipPath><clipPath id="b2c7652e30"><path d="M 185.578125 82.015625 L 183.824219 82.015625 L 183.824219 84.0625 L 185.578125 84.0625 C 186.148438 84.0625 186.585938 83.625 186.585938 83.035156 C 186.585938 82.445312 186.15625 82.007812 185.578125 82.007812 " clip-rule="nonzero"/></clipPath><clipPath id="5974b7b965"><path d="M 0.765625 0 L 3.667969 0 L 3.667969 2.171875 L 0.765625 2.171875 Z M 0.765625 0 " clip-rule="nonzero"/></clipPath><clipPath id="6d42c9525f"><path d="M 2.578125 0.015625 L 0.824219 0.015625 L 0.824219 2.0625 L 2.578125 2.0625 C 3.148438 2.0625 3.585938 1.625 3.585938 1.035156 C 3.585938 0.445312 3.15625 0.0078125 2.578125 0.0078125 " clip-rule="nonzero"/></clipPath><clipPath id="7b27adb557"><rect x="0" width="4" y="0" height="3"/></clipPath><clipPath id="c7ca78605e"><path d="M 191.085938 82.195312 L 193.296875 82.195312 L 193.296875 85.21875 L 191.085938 85.21875 Z M 191.085938 82.195312 " clip-rule="nonzero"/></clipPath><clipPath id="15204c498f"><path d="M 191.105469 85.167969 L 193.25 85.167969 L 192.183594 82.246094 Z M 191.105469 85.167969 " clip-rule="nonzero"/></clipPath><clipPath id="a2d5e52b5f"><path d="M 0.0859375 0.195312 L 2.265625 0.195312 L 2.265625 3.21875 L 0.0859375 3.21875 Z M 0.0859375 0.195312 " clip-rule="nonzero"/></clipPath><clipPath id="72dee36f9e"><path d="M 0.105469 3.167969 L 2.25 3.167969 L 1.183594 0.246094 Z M 0.105469 3.167969 " clip-rule="nonzero"/></clipPath><clipPath id="dc0893c2dc"><rect x="0" width="3" y="0" height="4"/></clipPath><clipPath id="94de9b9970"><path d="M 198 82 L 201.78125 82 L 201.78125 86.613281 L 198 86.613281 Z M 198 82 " clip-rule="nonzero"/></clipPath><clipPath id="6902161843"><path d="M 199.425781 82.015625 L 198.058594 82.015625 L 198.058594 86.554688 L 199.425781 86.554688 C 200.710938 86.554688 201.667969 85.589844 201.667969 84.28125 C 201.667969 82.976562 200.710938 82.015625 199.425781 82.015625 " clip-rule="nonzero"/></clipPath><clipPath id="44f77c2832"><path d="M 0.0507812 0 L 3.78125 0 L 3.78125 4.613281 L 0.0507812 4.613281 Z M 0.0507812 0 " clip-rule="nonzero"/></clipPath><clipPath id="fd017bfd35"><path d="M 1.425781 0.015625 L 0.0585938 0.015625 L 0.0585938 4.554688 L 1.425781 4.554688 C 2.710938 4.554688 3.667969 3.589844 3.667969 2.28125 C 3.667969 0.976562 2.710938 0.015625 1.425781 0.015625 " clip-rule="nonzero"/></clipPath><clipPath id="3bda06f2a9"><rect x="0" width="4" y="0" height="5"/></clipPath><clipPath id="7cfc141497"><path d="M 176.789062 82.195312 L 179.113281 82.195312 L 179.113281 85.21875 L 176.789062 85.21875 Z M 176.789062 82.195312 " clip-rule="nonzero"/></clipPath><clipPath id="81830dcfd7"><path d="M 176.871094 85.167969 L 179.015625 85.167969 L 177.949219 82.246094 Z M 176.871094 85.167969 " clip-rule="nonzero"/></clipPath><clipPath id="65e5c4c07e"><path d="M 0.789062 0.195312 L 3.113281 0.195312 L 3.113281 3.21875 L 0.789062 3.21875 Z M 0.789062 0.195312 " clip-rule="nonzero"/></clipPath><clipPath id="f3644046aa"><path d="M 0.871094 3.167969 L 3.015625 3.167969 L 1.949219 0.246094 Z M 0.871094 3.167969 " clip-rule="nonzero"/></clipPath><clipPath id="8c6ab87e05"><rect x="0" width="4" y="0" height="4"/></clipPath><clipPath id="596b967f13"><path d="M 155.402344 82.195312 L 157.609375 82.195312 L 157.609375 85.21875 L 155.402344 85.21875 Z M 155.402344 82.195312 " clip-rule="nonzero"/></clipPath><clipPath id="7c7cdb5948"><path d="M 155.445312 85.167969 L 157.589844 85.167969 L 156.523438 82.246094 Z M 155.445312 85.167969 " clip-rule="nonzero"/></clipPath><clipPath id="4a1d483170"><path d="M 0.4375 0.195312 L 2.59375 0.195312 L 2.59375 3.21875 L 0.4375 3.21875 Z M 0.4375 0.195312 " clip-rule="nonzero"/></clipPath><clipPath id="e6d01e840e"><path d="M 0.445312 3.167969 L 2.589844 3.167969 L 1.523438 0.246094 Z M 0.445312 3.167969 " clip-rule="nonzero"/></clipPath><clipPath id="848bd9045d"><rect x="0" width="3" y="0" height="4"/></clipPath><clipPath id="255a3ea87a"><path d="M 127.855469 82 L 131.691406 82 L 131.691406 86.613281 L 127.855469 86.613281 Z M 127.855469 82 " clip-rule="nonzero"/></clipPath><clipPath id="dc290eceab"><path d="M 129.332031 82.015625 L 127.964844 82.015625 L 127.964844 86.554688 L 129.332031 86.554688 C 130.617188 86.554688 131.574219 85.589844 131.574219 84.28125 C 131.574219 82.976562 130.617188 82.015625 129.332031 82.015625 " clip-rule="nonzero"/></clipPath><clipPath id="b8e1003c68"><path d="M 0.90625 0 L 4.691406 0 L 4.691406 4.613281 L 0.90625 4.613281 Z M 0.90625 0 " clip-rule="nonzero"/></clipPath><clipPath id="316a75535d"><path d="M 2.332031 0.015625 L 0.964844 0.015625 L 0.964844 4.554688 L 2.332031 4.554688 C 3.617188 4.554688 4.574219 3.589844 4.574219 2.28125 C 4.574219 0.976562 3.617188 0.015625 2.332031 0.015625 " clip-rule="nonzero"/></clipPath><clipPath id="c068cb00a3"><rect x="0" width="5" y="0" height="5"/></clipPath><clipPath id="a11e24a093"><path d="M 170.28125 82 L 173.300781 82 L 173.300781 84.171875 L 170.28125 84.171875 Z M 170.28125 82 " clip-rule="nonzero"/></clipPath><clipPath id="59741ec1a6"><path d="M 172.164062 82.015625 L 170.335938 82.015625 L 170.335938 84.132812 L 172.164062 84.132812 C 172.75 84.132812 173.199219 83.671875 173.199219 83.074219 C 173.199219 82.476562 172.761719 82.015625 172.164062 82.015625 " clip-rule="nonzero"/></clipPath><clipPath id="ec875115a8"><path d="M 0.28125 0 L 3.300781 0 L 3.300781 2.171875 L 0.28125 2.171875 Z M 0.28125 0 " clip-rule="nonzero"/></clipPath><clipPath id="4d071745d5"><path d="M 2.164062 0.015625 L 0.335938 0.015625 L 0.335938 2.132812 L 2.164062 2.132812 C 2.75 2.132812 3.199219 1.671875 3.199219 1.074219 C 3.199219 0.476562 2.761719 0.015625 2.164062 0.015625 " clip-rule="nonzero"/></clipPath><clipPath id="750cc7f8e6"><rect x="0" width="4" y="0" height="3"/></clipPath><clipPath id="de12ec11a0"><path d="M 119.019531 74.289062 L 226.191406 74.289062 L 226.191406 94.285156 L 119.019531 94.285156 Z M 119.019531 74.289062 " clip-rule="nonzero"/></clipPath><clipPath id="337b5629c8"><path d="M 216.941406 87.933594 L 215.136719 85.289062 L 213.328125 87.933594 L 211.542969 87.933594 L 214.136719 84.28125 L 211.585938 80.652344 L 213.378906 80.652344 L 215.15625 83.253906 L 216.910156 80.652344 L 218.695312 80.652344 L 216.144531 84.28125 L 218.734375 87.933594 Z M 207.773438 88.0625 C 205.578125 88.0625 203.933594 86.4375 203.933594 84.292969 C 203.933594 82.148438 205.578125 80.519531 207.773438 80.519531 C 209.957031 80.519531 211.613281 82.148438 211.613281 84.292969 C 211.613281 86.4375 209.957031 88.0625 207.773438 88.0625 M 199.453125 87.933594 L 196.601562 87.933594 L 196.601562 80.652344 L 199.453125 80.652344 C 201.578125 80.652344 203.175781 82.214844 203.175781 84.292969 C 203.175781 86.367188 201.578125 87.933594 199.453125 87.933594 M 194.257812 87.933594 L 193.738281 86.515625 L 190.605469 86.515625 L 190.097656 87.933594 L 188.523438 87.933594 L 191.335938 80.652344 L 193.058594 80.652344 L 195.851562 87.933594 Z M 186.488281 87.933594 L 184.820312 85.339844 L 183.832031 85.339844 L 183.832031 87.933594 L 182.367188 87.933594 L 182.367188 80.652344 L 185.609375 80.652344 C 187.015625 80.652344 188.082031 81.679688 188.082031 83.035156 C 188.082031 84.082031 187.425781 84.910156 186.46875 85.210938 L 188.292969 87.933594 Z M 180.023438 87.933594 L 179.503906 86.515625 L 176.371094 86.515625 L 175.863281 87.933594 L 174.296875 87.933594 L 177.109375 80.652344 L 178.835938 80.652344 L 181.628906 87.933594 Z M 172.191406 85.5 L 170.335938 85.5 L 170.335938 87.921875 L 168.882812 87.921875 L 168.882812 80.640625 L 172.191406 80.640625 C 173.609375 80.640625 174.695312 81.6875 174.695312 83.066406 C 174.695312 84.441406 173.609375 85.488281 172.191406 85.488281 M 165.480469 87.914062 L 160.949219 87.914062 L 160.949219 80.628906 L 162.40625 80.628906 L 162.40625 86.546875 L 165.480469 86.546875 Z M 158.605469 87.914062 L 158.089844 86.496094 L 154.945312 86.496094 L 154.4375 87.914062 L 152.871094 87.914062 L 155.683594 80.628906 L 157.398438 80.628906 L 160.203125 87.914062 Z M 151.386719 87.914062 L 149.929688 87.914062 L 149.929688 82.015625 L 147.945312 82.015625 L 147.945312 80.640625 L 153.371094 80.640625 L 153.371094 82.015625 L 151.386719 82.015625 Z M 146.925781 87.914062 L 145.46875 87.914062 L 145.46875 80.628906 L 146.925781 80.628906 Z M 144.351562 84.320312 C 144.351562 86.4375 142.777344 88.042969 140.613281 88.042969 C 138.417969 88.042969 136.773438 86.417969 136.773438 84.273438 C 136.773438 82.125 138.417969 80.5 140.613281 80.5 C 142.316406 80.5 143.746094 81.507812 144.171875 82.914062 L 142.546875 82.914062 C 142.15625 82.296875 141.449219 81.898438 140.613281 81.898438 C 139.277344 81.898438 138.257812 82.914062 138.257812 84.261719 C 138.257812 85.609375 139.277344 86.625 140.613281 86.625 C 141.660156 86.625 142.507812 86.027344 142.777344 85.128906 L 140.839844 85.128906 L 140.839844 83.832031 L 144.34375 83.832031 Z M 135.65625 87.914062 L 134.1875 87.914062 L 134.1875 80.628906 L 135.644531 80.628906 Z M 129.359375 87.914062 L 126.507812 87.914062 L 126.507812 80.628906 L 129.359375 80.628906 C 131.484375 80.628906 133.082031 82.195312 133.082031 84.273438 C 133.082031 86.347656 131.484375 87.914062 129.359375 87.914062 M 119.125 94.175781 L 226.117188 94.175781 L 226.117188 74.394531 L 119.125 74.394531 Z M 119.125 94.175781 " clip-rule="nonzero"/></clipPath><clipPath id="dfbefe7d3b"><path d="M 0.0507812 0.289062 L 107.191406 0.289062 L 107.191406 20.285156 L 0.0507812 20.285156 Z M 0.0507812 0.289062 " clip-rule="nonzero"/></clipPath><clipPath id="c855761612"><path d="M 97.941406 13.933594 L 96.136719 11.289062 L 94.328125 13.933594 L 92.542969 13.933594 L 95.136719 10.28125 L 92.585938 6.652344 L 94.378906 6.652344 L 96.15625 9.253906 L 97.910156 6.652344 L 99.695312 6.652344 L 97.144531 10.28125 L 99.734375 13.933594 Z M 88.773438 14.0625 C 86.578125 14.0625 84.933594 12.4375 84.933594 10.292969 C 84.933594 8.148438 86.578125 6.519531 88.773438 6.519531 C 90.957031 6.519531 92.613281 8.148438 92.613281 10.292969 C 92.613281 12.4375 90.957031 14.0625 88.773438 14.0625 M 80.453125 13.933594 L 77.601562 13.933594 L 77.601562 6.652344 L 80.453125 6.652344 C 82.578125 6.652344 84.175781 8.214844 84.175781 10.292969 C 84.175781 12.367188 82.578125 13.933594 80.453125 13.933594 M 75.257812 13.933594 L 74.738281 12.515625 L 71.605469 12.515625 L 71.097656 13.933594 L 69.523438 13.933594 L 72.335938 6.652344 L 74.058594 6.652344 L 76.851562 13.933594 Z M 67.488281 13.933594 L 65.820312 11.339844 L 64.832031 11.339844 L 64.832031 13.933594 L 63.367188 13.933594 L 63.367188 6.652344 L 66.609375 6.652344 C 68.015625 6.652344 69.082031 7.679688 69.082031 9.035156 C 69.082031 10.082031 68.425781 10.910156 67.46875 11.210938 L 69.292969 13.933594 Z M 61.023438 13.933594 L 60.503906 12.515625 L 57.371094 12.515625 L 56.863281 13.933594 L 55.296875 13.933594 L 58.109375 6.652344 L 59.835938 6.652344 L 62.628906 13.933594 Z M 53.191406 11.5 L 51.335938 11.5 L 51.335938 13.921875 L 49.882812 13.921875 L 49.882812 6.640625 L 53.191406 6.640625 C 54.609375 6.640625 55.695312 7.6875 55.695312 9.066406 C 55.695312 10.441406 54.609375 11.488281 53.191406 11.488281 M 46.480469 13.914062 L 41.949219 13.914062 L 41.949219 6.628906 L 43.40625 6.628906 L 43.40625 12.546875 L 46.480469 12.546875 Z M 39.605469 13.914062 L 39.089844 12.496094 L 35.945312 12.496094 L 35.4375 13.914062 L 33.871094 13.914062 L 36.683594 6.628906 L 38.398438 6.628906 L 41.203125 13.914062 Z M 32.386719 13.914062 L 30.929688 13.914062 L 30.929688 8.015625 L 28.945312 8.015625 L 28.945312 6.640625 L 34.371094 6.640625 L 34.371094 8.015625 L 32.386719 8.015625 Z M 27.925781 13.914062 L 26.46875 13.914062 L 26.46875 6.628906 L 27.925781 6.628906 Z M 25.351562 10.320312 C 25.351562 12.4375 23.777344 14.042969 21.613281 14.042969 C 19.417969 14.042969 17.773438 12.417969 17.773438 10.273438 C 17.773438 8.125 19.417969 6.5 21.613281 6.5 C 23.316406 6.5 24.746094 7.507812 25.171875 8.914062 L 23.546875 8.914062 C 23.15625 8.296875 22.449219 7.898438 21.613281 7.898438 C 20.277344 7.898438 19.257812 8.914062 19.257812 10.261719 C 19.257812 11.609375 20.277344 12.625 21.613281 12.625 C 22.660156 12.625 23.507812 12.027344 23.777344 11.128906 L 21.839844 11.128906 L 21.839844 9.832031 L 25.34375 9.832031 Z M 16.65625 13.914062 L 15.1875 13.914062 L 15.1875 6.628906 L 16.644531 6.628906 Z M 10.359375 13.914062 L 7.507812 13.914062 L 7.507812 6.628906 L 10.359375 6.628906 C 12.484375 6.628906 14.082031 8.195312 14.082031 10.273438 C 14.082031 12.347656 12.484375 13.914062 10.359375 13.914062 M 0.125 20.175781 L 107.117188 20.175781 L 107.117188 0.394531 L 0.125 0.394531 Z M 0.125 20.175781 " clip-rule="nonzero"/></clipPath><clipPath id="4d3638e11a"><rect x="0" width="108" y="0" height="21"/></clipPath><clipPath id="b6fa56eb2b"><path d="M 205.382812 81.847656 L 210.148438 81.847656 L 210.148438 86.726562 L 205.382812 86.726562 Z M 205.382812 81.847656 " clip-rule="nonzero"/></clipPath><clipPath id="ad54ce47bb"><path d="M 207.773438 81.917969 C 206.425781 81.917969 205.417969 82.933594 205.417969 84.28125 C 205.417969 85.628906 206.4375 86.644531 207.773438 86.644531 C 209.101562 86.644531 210.117188 85.628906 210.117188 84.28125 C 210.117188 82.933594 209.101562 81.917969 207.773438 81.917969 " clip-rule="nonzero"/></clipPath><clipPath id="84a7add87c"><path d="M 0.382812 0.875 L 5.148438 0.875 L 5.148438 5.664062 L 0.382812 5.664062 Z M 0.382812 0.875 " clip-rule="nonzero"/></clipPath><clipPath id="c77fdf5311"><path d="M 2.773438 0.917969 C 1.425781 0.917969 0.417969 1.933594 0.417969 3.28125 C 0.417969 4.628906 1.4375 5.644531 2.773438 5.644531 C 4.101562 5.644531 5.117188 4.628906 5.117188 3.28125 C 5.117188 1.933594 4.101562 0.917969 2.773438 0.917969 " clip-rule="nonzero"/></clipPath><clipPath id="cfaa1bf14f"><rect x="0" width="6" y="0" height="6"/></clipPath><clipPath id="8b0b90c805"><path d="M 151.855469 4.96875 L 165.472656 4.96875 L 165.472656 18.585938 L 151.855469 18.585938 Z M 151.855469 4.96875 " clip-rule="nonzero"/></clipPath><clipPath id="bc5da24d3a"><path d="M 158.660156 6.144531 C 161.761719 6.144531 164.292969 8.667969 164.292969 11.78125 C 164.292969 14.890625 161.769531 17.417969 158.660156 17.417969 C 155.546875 17.417969 153.023438 14.890625 153.023438 11.78125 C 153.023438 8.667969 155.554688 6.144531 158.660156 6.144531 M 158.660156 4.996094 C 154.90625 4.996094 151.875 8.03125 151.875 11.78125 C 151.875 15.53125 154.90625 18.5625 158.660156 18.5625 C 162.410156 18.5625 165.441406 15.53125 165.441406 11.78125 C 165.441406 8.03125 162.410156 4.996094 158.660156 4.996094 " clip-rule="nonzero"/></clipPath><clipPath id="eca3038ac7"><path d="M 0.855469 0.96875 L 14.472656 0.96875 L 14.472656 14.585938 L 0.855469 14.585938 Z M 0.855469 0.96875 " clip-rule="nonzero"/></clipPath><clipPath id="4f4d33ea97"><path d="M 7.660156 2.144531 C 10.761719 2.144531 13.292969 4.667969 13.292969 7.78125 C 13.292969 10.890625 10.769531 13.417969 7.660156 13.417969 C 4.546875 13.417969 2.023438 10.890625 2.023438 7.78125 C 2.023438 4.667969 4.554688 2.144531 7.660156 2.144531 M 7.660156 0.996094 C 3.90625 0.996094 0.875 4.03125 0.875 7.78125 C 0.875 11.53125 3.90625 14.5625 7.660156 14.5625 C 11.410156 14.5625 14.441406 11.53125 14.441406 7.78125 C 14.441406 4.03125 11.410156 0.996094 7.660156 0.996094 " clip-rule="nonzero"/></clipPath><clipPath id="c14de983d1"><rect x="0" width="15" y="0" height="15"/></clipPath><clipPath id="e1f185714e"><path d="M 180.378906 4.96875 L 193.441406 4.96875 L 193.441406 18.308594 L 180.378906 18.308594 Z M 180.378906 4.96875 " clip-rule="nonzero"/></clipPath><clipPath id="a9efdb8978"><path d="M 192.085938 18.253906 L 186.878906 7.609375 L 181.671875 18.253906 L 180.382812 18.253906 L 186.878906 4.988281 L 193.371094 18.253906 Z M 192.085938 18.253906 " clip-rule="nonzero"/></clipPath><clipPath id="cbfb2d1dbf"><path d="M 0.378906 0.96875 L 13.441406 0.96875 L 13.441406 14.308594 L 0.378906 14.308594 Z M 0.378906 0.96875 " clip-rule="nonzero"/></clipPath><clipPath id="1b2d6d8c77"><path d="M 12.085938 14.253906 L 6.878906 3.609375 L 1.671875 14.253906 L 0.382812 14.253906 L 6.878906 0.988281 L 13.371094 14.253906 Z M 12.085938 14.253906 " clip-rule="nonzero"/></clipPath><clipPath id="697bb72456"><rect x="0" width="14" y="0" height="15"/></clipPath><clipPath id="8b735968de"><path d="M 168.601562 5.242188 L 179.273438 5.242188 L 179.273438 18.308594 L 168.601562 18.308594 Z M 168.601562 5.242188 " clip-rule="nonzero"/></clipPath><clipPath id="2bbf4ae77b"><path d="M 172.234375 6.464844 C 174.167969 6.464844 175.277344 6.824219 176.335938 7.789062 C 177.441406 8.808594 178.058594 10.234375 178.058594 11.800781 C 178.058594 13.296875 177.472656 14.683594 176.394531 15.699219 C 175.316406 16.71875 174.191406 17.097656 172.234375 17.097656 L 169.78125 17.097656 L 169.78125 6.464844 Z M 172.234375 5.316406 L 168.625 5.316406 L 168.625 18.242188 L 172.234375 18.242188 C 174.191406 18.242188 175.734375 17.90625 177.191406 16.527344 C 178.519531 15.273438 179.21875 13.574219 179.21875 11.789062 C 179.21875 9.933594 178.5 8.199219 177.121094 6.933594 C 175.675781 5.605469 174.160156 5.304688 172.234375 5.304688 " clip-rule="nonzero"/></clipPath><clipPath id="78b13a252c"><path d="M 0.605469 0.265625 L 11.273438 0.265625 L 11.273438 13.308594 L 0.605469 13.308594 Z M 0.605469 0.265625 " clip-rule="nonzero"/></clipPath><clipPath id="d18c2d6f56"><path d="M 4.234375 1.464844 C 6.167969 1.464844 7.277344 1.824219 8.335938 2.789062 C 9.441406 3.808594 10.058594 5.234375 10.058594 6.800781 C 10.058594 8.296875 9.472656 9.683594 8.394531 10.699219 C 7.316406 11.71875 6.191406 12.097656 4.234375 12.097656 L 1.78125 12.097656 L 1.78125 1.464844 Z M 4.234375 0.316406 L 0.625 0.316406 L 0.625 13.242188 L 4.234375 13.242188 C 6.191406 13.242188 7.734375 12.90625 9.191406 11.527344 C 10.519531 10.273438 11.21875 8.574219 11.21875 6.789062 C 11.21875 4.933594 10.5 3.199219 9.121094 1.933594 C 7.675781 0.605469 6.160156 0.304688 4.234375 0.304688 " clip-rule="nonzero"/></clipPath><clipPath id="1d111623cf"><rect x="0" width="12" y="0" height="14"/></clipPath><clipPath id="92bdcd9ddb"><path d="M 5.296875 34.851562 L 8.816406 34.851562 L 8.816406 58.742188 L 5.296875 58.742188 Z M 5.296875 34.851562 " clip-rule="nonzero"/></clipPath><clipPath id="53ecfd5a75"><path d="M 0.296875 0.851562 L 3.816406 0.851562 L 3.816406 24.742188 L 0.296875 24.742188 Z M 0.296875 0.851562 " clip-rule="nonzero"/></clipPath><clipPath id="a6dd07ec6e"><rect x="0" width="4" y="0" height="25"/></clipPath><clipPath id="58d09df316"><path d="M 17.671875 34.734375 L 37.480469 34.734375 L 37.480469 58.746094 L 17.671875 58.746094 Z M 17.671875 34.734375 " clip-rule="nonzero"/></clipPath><clipPath id="ca971badfc"><path d="M 34.101562 52.917969 L 20.40625 34.851562 L 17.734375 34.851562 L 17.734375 58.742188 L 20.984375 58.742188 L 20.984375 40.589844 L 34.742188 58.742188 L 37.355469 58.742188 L 37.355469 34.851562 L 34.101562 34.851562 Z M 34.101562 52.917969 " clip-rule="nonzero"/></clipPath><clipPath id="6967d7daaa"><path d="M 0.671875 0.734375 L 20.414062 0.734375 L 20.414062 24.746094 L 0.671875 24.746094 Z M 0.671875 0.734375 " clip-rule="nonzero"/></clipPath><clipPath id="40828de8df"><path d="M 17.101562 18.917969 L 3.40625 0.851562 L 0.734375 0.851562 L 0.734375 24.742188 L 3.984375 24.742188 L 3.984375 6.589844 L 17.742188 24.742188 L 20.355469 24.742188 L 20.355469 0.851562 L 17.101562 0.851562 Z M 17.101562 18.917969 " clip-rule="nonzero"/></clipPath><clipPath id="050c31bd89"><rect x="0" width="21" y="0" height="25"/></clipPath><clipPath id="58480582dc"><path d="M 45.078125 34.460938 L 63.394531 34.460938 L 63.394531 59.019531 L 45.078125 59.019531 Z M 45.078125 34.460938 " clip-rule="nonzero"/></clipPath><clipPath id="37e3f3a805"><path d="M 61.722656 48.140625 C 60.617188 47.140625 58.929688 46.414062 56.675781 45.933594 L 53.085938 45.1875 C 51.660156 44.898438 50.640625 44.457031 50.03125 43.898438 C 49.425781 43.339844 49.113281 42.582031 49.113281 41.625 C 49.113281 40.789062 49.335938 40.070312 49.773438 39.449219 C 50.210938 38.832031 50.851562 38.363281 51.667969 38.023438 C 52.488281 37.683594 53.453125 37.515625 54.5625 37.515625 C 55.957031 37.515625 57.222656 37.726562 58.363281 38.144531 C 59.5 38.5625 60.546875 39.203125 61.515625 40.058594 L 62.671875 37.386719 C 62.03125 36.777344 61.292969 36.257812 60.445312 35.828125 C 59.597656 35.402344 58.679688 35.082031 57.703125 34.863281 C 56.726562 34.644531 55.6875 34.542969 54.601562 34.542969 C 52.835938 34.542969 51.289062 34.84375 49.941406 35.421875 C 48.597656 36 47.539062 36.847656 46.769531 37.925781 C 46.003906 39.003906 45.625 40.277344 45.625 41.714844 C 45.625 43.480469 46.152344 44.878906 47.199219 45.914062 C 48.246094 46.953125 49.851562 47.699219 51.996094 48.148438 L 55.628906 48.898438 C 56.644531 49.097656 57.472656 49.355469 58.101562 49.65625 C 58.730469 49.953125 59.191406 50.324219 59.480469 50.753906 C 59.769531 51.179688 59.898438 51.699219 59.898438 52.308594 C 59.898438 53.414062 59.4375 54.3125 58.519531 55 C 57.601562 55.691406 56.1875 56.039062 54.273438 56.039062 C 53.183594 56.039062 52.175781 55.941406 51.257812 55.75 C 50.339844 55.558594 49.464844 55.269531 48.644531 54.882812 C 47.828125 54.492188 47.039062 54.023438 46.273438 53.457031 L 45.15625 56.238281 C 45.871094 56.828125 46.710938 57.324219 47.648438 57.746094 C 48.585938 58.164062 49.613281 58.484375 50.730469 58.691406 C 51.847656 58.902344 53.035156 59.011719 54.273438 59.011719 C 56.148438 59.011719 57.761719 58.722656 59.121094 58.144531 C 60.476562 57.566406 61.523438 56.757812 62.273438 55.699219 C 63.019531 54.644531 63.390625 53.4375 63.390625 52.058594 C 63.390625 50.414062 62.832031 49.085938 61.722656 48.089844 " clip-rule="nonzero"/></clipPath><clipPath id="d3e57056db"><path d="M 0.078125 0.472656 L 18.394531 0.472656 L 18.394531 25.019531 L 0.078125 25.019531 Z M 0.078125 0.472656 " clip-rule="nonzero"/></clipPath><clipPath id="f428547d10"><path d="M 16.722656 14.140625 C 15.617188 13.140625 13.929688 12.414062 11.675781 11.933594 L 8.085938 11.1875 C 6.660156 10.898438 5.640625 10.457031 5.03125 9.898438 C 4.425781 9.339844 4.113281 8.582031 4.113281 7.625 C 4.113281 6.789062 4.335938 6.070312 4.773438 5.449219 C 5.210938 4.832031 5.851562 4.363281 6.667969 4.023438 C 7.488281 3.683594 8.453125 3.515625 9.5625 3.515625 C 10.957031 3.515625 12.222656 3.726562 13.363281 4.144531 C 14.5 4.5625 15.546875 5.203125 16.515625 6.058594 L 17.671875 3.386719 C 17.03125 2.777344 16.292969 2.257812 15.445312 1.828125 C 14.597656 1.402344 13.679688 1.082031 12.703125 0.863281 C 11.726562 0.644531 10.6875 0.542969 9.601562 0.542969 C 7.835938 0.542969 6.289062 0.84375 4.941406 1.421875 C 3.597656 2 2.539062 2.847656 1.769531 3.925781 C 1.003906 5.003906 0.625 6.277344 0.625 7.714844 C 0.625 9.480469 1.152344 10.878906 2.199219 11.914062 C 3.246094 12.953125 4.851562 13.699219 6.996094 14.148438 L 10.628906 14.898438 C 11.644531 15.097656 12.472656 15.355469 13.101562 15.65625 C 13.730469 15.953125 14.191406 16.324219 14.480469 16.753906 C 14.769531 17.179688 14.898438 17.699219 14.898438 18.308594 C 14.898438 19.414062 14.4375 20.3125 13.519531 21 C 12.601562 21.691406 11.1875 22.039062 9.273438 22.039062 C 8.183594 22.039062 7.175781 21.941406 6.257812 21.75 C 5.339844 21.558594 4.464844 21.269531 3.644531 20.882812 C 2.828125 20.492188 2.039062 20.023438 1.273438 19.457031 L 0.15625 22.238281 C 0.871094 22.828125 1.710938 23.324219 2.648438 23.746094 C 3.585938 24.164062 4.613281 24.484375 5.730469 24.691406 C 6.847656 24.902344 8.035156 25.011719 9.273438 25.011719 C 11.148438 25.011719 12.761719 24.722656 14.121094 24.144531 C 15.476562 23.566406 16.523438 22.757812 17.273438 21.699219 C 18.019531 20.644531 18.390625 19.4375 18.390625 18.058594 C 18.390625 16.414062 17.832031 15.085938 16.722656 14.089844 " clip-rule="nonzero"/></clipPath><clipPath id="b94e840294"><rect x="0" width="19" y="0" height="26"/></clipPath><clipPath id="5a43e10c84"><path d="M 70.71875 34.734375 L 88.765625 34.734375 L 88.765625 58.746094 L 70.71875 58.746094 Z M 70.71875 34.734375 " clip-rule="nonzero"/></clipPath><clipPath id="bfa13483b5"><path d="M 84.007812 45.503906 C 83.140625 46.265625 81.851562 46.644531 80.15625 46.644531 L 74.300781 46.644531 L 74.300781 37.664062 L 80.167969 37.664062 C 81.863281 37.664062 83.140625 38.042969 84.015625 38.800781 C 84.894531 39.5625 85.324219 40.667969 85.324219 42.144531 C 85.324219 43.640625 84.886719 44.757812 84.015625 45.515625 M 85.085938 35.71875 C 83.886719 35.140625 82.421875 34.851562 80.675781 34.851562 L 70.769531 34.851562 L 70.769531 58.742188 L 74.292969 58.742188 L 74.292969 49.457031 L 80.664062 49.457031 C 82.402344 49.457031 83.878906 49.167969 85.074219 48.589844 C 86.269531 48.007812 87.179688 47.171875 87.808594 46.074219 C 88.4375 44.976562 88.734375 43.660156 88.734375 42.125 C 88.734375 40.589844 88.425781 39.28125 87.808594 38.195312 C 87.1875 37.105469 86.269531 36.289062 85.074219 35.71875 " clip-rule="nonzero"/></clipPath><clipPath id="159fa05985"><path d="M 0.71875 0.734375 L 18.765625 0.734375 L 18.765625 24.746094 L 0.71875 24.746094 Z M 0.71875 0.734375 " clip-rule="nonzero"/></clipPath><clipPath id="85caed9a38"><path d="M 14.007812 11.503906 C 13.140625 12.265625 11.851562 12.644531 10.15625 12.644531 L 4.300781 12.644531 L 4.300781 3.664062 L 10.167969 3.664062 C 11.863281 3.664062 13.140625 4.042969 14.015625 4.800781 C 14.894531 5.5625 15.324219 6.667969 15.324219 8.144531 C 15.324219 9.640625 14.886719 10.757812 14.015625 11.515625 M 15.085938 1.71875 C 13.886719 1.140625 12.421875 0.851562 10.675781 0.851562 L 0.769531 0.851562 L 0.769531 24.742188 L 4.292969 24.742188 L 4.292969 15.457031 L 10.664062 15.457031 C 12.402344 15.457031 13.878906 15.167969 15.074219 14.589844 C 16.269531 14.007812 17.179688 13.171875 17.808594 12.074219 C 18.4375 10.976562 18.734375 9.660156 18.734375 8.125 C 18.734375 6.589844 18.425781 5.28125 17.808594 4.195312 C 17.1875 3.105469 16.269531 2.289062 15.074219 1.71875 " clip-rule="nonzero"/></clipPath><clipPath id="22067a0324"><rect x="0" width="19" y="0" height="25"/></clipPath><clipPath id="9d0a8297d0"><path d="M 95.925781 34.851562 L 99.449219 34.851562 L 99.449219 58.742188 L 95.925781 58.742188 Z M 95.925781 34.851562 " clip-rule="nonzero"/></clipPath><clipPath id="f4af10e6ba"><path d="M 0.925781 0.851562 L 4.449219 0.851562 L 4.449219 24.742188 L 0.925781 24.742188 Z M 0.925781 0.851562 " clip-rule="nonzero"/></clipPath><clipPath id="29a87aa359"><rect x="0" width="5" y="0" height="25"/></clipPath><clipPath id="46268d950c"><path d="M 108.300781 34.734375 L 127.839844 34.734375 L 127.839844 58.882812 L 108.300781 58.882812 Z M 108.300781 34.734375 " clip-rule="nonzero"/></clipPath><clipPath id="e7446921d6"><path d="M 111.886719 46.234375 L 111.886719 37.664062 L 117.683594 37.664062 C 119.398438 37.664062 120.695312 38.023438 121.582031 38.753906 C 122.46875 39.480469 122.898438 40.539062 122.898438 41.933594 C 122.898438 43.359375 122.460938 44.429688 121.582031 45.15625 C 120.703125 45.882812 119.398438 46.242188 117.683594 46.242188 Z M 121.800781 48.976562 C 121.511719 48.777344 121.203125 48.628906 120.863281 48.519531 C 121.492188 48.386719 122.082031 48.199219 122.621094 47.960938 C 123.828125 47.421875 124.746094 46.621094 125.382812 45.585938 C 126.023438 44.546875 126.332031 43.300781 126.332031 41.855469 C 126.332031 39.621094 125.632812 37.886719 124.226562 36.667969 C 122.820312 35.449219 120.835938 34.84375 118.261719 34.84375 L 108.367188 34.84375 L 108.367188 58.742188 L 111.886719 58.742188 L 111.886719 48.886719 L 115.71875 48.886719 C 116.375 48.886719 116.945312 48.945312 117.433594 49.078125 C 117.921875 49.207031 118.351562 49.425781 118.71875 49.753906 C 119.089844 50.085938 119.4375 50.542969 119.757812 51.132812 L 123.898438 58.753906 L 127.757812 58.753906 L 123.617188 51.160156 C 123.078125 50.164062 122.46875 49.445312 121.800781 48.996094 " clip-rule="nonzero"/></clipPath><clipPath id="1483914369"><path d="M 0.300781 0.734375 L 19.839844 0.734375 L 19.839844 24.882812 L 0.300781 24.882812 Z M 0.300781 0.734375 " clip-rule="nonzero"/></clipPath><clipPath id="bd5c9ecaac"><path d="M 3.886719 12.234375 L 3.886719 3.664062 L 9.683594 3.664062 C 11.398438 3.664062 12.695312 4.023438 13.582031 4.753906 C 14.46875 5.480469 14.898438 6.539062 14.898438 7.933594 C 14.898438 9.359375 14.460938 10.429688 13.582031 11.15625 C 12.703125 11.882812 11.398438 12.242188 9.683594 12.242188 Z M 13.800781 14.976562 C 13.511719 14.777344 13.203125 14.628906 12.863281 14.519531 C 13.492188 14.386719 14.082031 14.199219 14.621094 13.960938 C 15.828125 13.421875 16.746094 12.621094 17.382812 11.585938 C 18.023438 10.546875 18.332031 9.300781 18.332031 7.855469 C 18.332031 5.621094 17.632812 3.886719 16.226562 2.667969 C 14.820312 1.449219 12.835938 0.84375 10.261719 0.84375 L 0.367188 0.84375 L 0.367188 24.742188 L 3.886719 24.742188 L 3.886719 14.886719 L 7.71875 14.886719 C 8.375 14.886719 8.945312 14.945312 9.433594 15.078125 C 9.921875 15.207031 10.351562 15.425781 10.71875 15.753906 C 11.089844 16.085938 11.4375 16.542969 11.757812 17.132812 L 15.898438 24.753906 L 19.757812 24.753906 L 15.617188 17.160156 C 15.078125 16.164062 14.46875 15.445312 13.800781 14.996094 " clip-rule="nonzero"/></clipPath><clipPath id="fd1deda58d"><rect x="0" width="20" y="0" height="25"/></clipPath><clipPath id="3f1e8043b0"><path d="M 157.371094 34.851562 L 177.800781 34.851562 L 177.800781 37.796875 L 157.371094 37.796875 Z M 165.839844 37.796875 L 169.332031 37.796875 L 169.332031 58.742188 L 165.839844 58.742188 Z M 165.839844 37.796875 " clip-rule="nonzero"/></clipPath><clipPath id="faecc42be4"><path d="M 0.371094 0.851562 L 20.800781 0.851562 L 20.800781 3.796875 L 0.371094 3.796875 Z M 8.839844 3.796875 L 12.332031 3.796875 L 12.332031 24.742188 L 8.839844 24.742188 Z M 8.839844 3.796875 " clip-rule="nonzero"/></clipPath><clipPath id="a5aa92c563"><rect x="0" width="21" y="0" height="25"/></clipPath><clipPath id="a17d4d6ea5"><path d="M 184.105469 34.851562 L 187.625 34.851562 L 187.625 58.742188 L 184.105469 58.742188 Z M 184.105469 34.851562 " clip-rule="nonzero"/></clipPath><clipPath id="9a4be1c0bc"><path d="M 0.105469 0.851562 L 3.625 0.851562 L 3.625 24.742188 L 0.105469 24.742188 Z M 0.105469 0.851562 " clip-rule="nonzero"/></clipPath><clipPath id="5de0cee4a5"><rect x="0" width="4" y="0" height="25"/></clipPath><clipPath id="5c264b062c"><path d="M 195.671875 34.460938 L 218.195312 34.460938 L 218.195312 59.152344 L 195.671875 59.152344 Z M 195.671875 34.460938 " clip-rule="nonzero"/></clipPath><clipPath id="bb232c4c69"><path d="M 213.542969 51.761719 C 212.941406 53.136719 212.085938 54.183594 210.96875 54.914062 C 209.851562 55.640625 208.496094 56 206.917969 56 C 205.34375 56 203.984375 55.640625 202.867188 54.914062 C 201.75 54.183594 200.894531 53.136719 200.292969 51.738281 C 199.695312 50.34375 199.398438 48.699219 199.398438 46.773438 C 199.398438 44.828125 199.695312 43.171875 200.292969 41.796875 C 200.894531 40.417969 201.75 39.371094 202.867188 38.664062 C 203.984375 37.953125 205.34375 37.59375 206.917969 37.59375 C 208.523438 37.59375 209.878906 37.953125 210.996094 38.664062 C 212.113281 39.371094 212.972656 40.417969 213.5625 41.796875 C 214.148438 43.171875 214.4375 44.835938 214.4375 46.773438 C 214.4375 48.707031 214.140625 50.375 213.542969 51.75 M 215.066406 37.835938 C 214.089844 36.777344 212.902344 35.960938 211.527344 35.390625 C 210.148438 34.824219 208.613281 34.542969 206.917969 34.542969 C 205.203125 34.542969 203.65625 34.824219 202.28125 35.390625 C 200.902344 35.960938 199.726562 36.777344 198.757812 37.84375 C 197.792969 38.914062 197.042969 40.207031 196.523438 41.707031 C 196.003906 43.203125 195.746094 44.898438 195.746094 46.773438 C 195.746094 48.648438 196.003906 50.332031 196.523438 51.839844 C 197.042969 53.347656 197.800781 54.632812 198.777344 55.71875 C 199.757812 56.808594 200.941406 57.636719 202.320312 58.195312 C 203.695312 58.753906 205.234375 59.042969 206.929688 59.042969 C 208.625 59.042969 210.160156 58.761719 211.535156 58.195312 C 212.914062 57.625 214.101562 56.808594 215.078125 55.71875 C 216.054688 54.632812 216.8125 53.335938 217.332031 51.820312 C 217.851562 50.304688 218.109375 48.609375 218.109375 46.734375 C 218.109375 44.855469 217.851562 43.171875 217.332031 41.664062 C 216.8125 40.160156 216.066406 38.882812 215.078125 37.816406 " clip-rule="nonzero"/></clipPath><clipPath id="090c66848f"><path d="M 0.671875 0.472656 L 23.160156 0.472656 L 23.160156 25.132812 L 0.671875 25.132812 Z M 0.671875 0.472656 " clip-rule="nonzero"/></clipPath><clipPath id="1555fda626"><path d="M 18.542969 17.761719 C 17.941406 19.136719 17.085938 20.183594 15.96875 20.914062 C 14.851562 21.640625 13.496094 22 11.917969 22 C 10.34375 22 8.984375 21.640625 7.867188 20.914062 C 6.75 20.183594 5.894531 19.136719 5.292969 17.738281 C 4.695312 16.34375 4.398438 14.699219 4.398438 12.773438 C 4.398438 10.828125 4.695312 9.171875 5.292969 7.796875 C 5.894531 6.417969 6.75 5.371094 7.867188 4.664062 C 8.984375 3.953125 10.34375 3.59375 11.917969 3.59375 C 13.523438 3.59375 14.878906 3.953125 15.996094 4.664062 C 17.113281 5.371094 17.972656 6.417969 18.5625 7.796875 C 19.148438 9.171875 19.4375 10.835938 19.4375 12.773438 C 19.4375 14.707031 19.140625 16.375 18.542969 17.75 M 20.066406 3.835938 C 19.089844 2.777344 17.902344 1.960938 16.527344 1.390625 C 15.148438 0.824219 13.613281 0.542969 11.917969 0.542969 C 10.203125 0.542969 8.65625 0.824219 7.28125 1.390625 C 5.902344 1.960938 4.726562 2.777344 3.757812 3.84375 C 2.792969 4.914062 2.042969 6.207031 1.523438 7.707031 C 1.003906 9.203125 0.746094 10.898438 0.746094 12.773438 C 0.746094 14.648438 1.003906 16.332031 1.523438 17.839844 C 2.042969 19.347656 2.800781 20.632812 3.777344 21.71875 C 4.757812 22.808594 5.941406 23.636719 7.320312 24.195312 C 8.695312 24.753906 10.234375 25.042969 11.929688 25.042969 C 13.625 25.042969 15.160156 24.761719 16.535156 24.195312 C 17.914062 23.625 19.101562 22.808594 20.078125 21.71875 C 21.054688 20.632812 21.8125 19.335938 22.332031 17.820312 C 22.851562 16.304688 23.109375 14.609375 23.109375 12.734375 C 23.109375 10.855469 22.851562 9.171875 22.332031 7.664062 C 21.8125 6.160156 21.066406 4.882812 20.078125 3.816406 " clip-rule="nonzero"/></clipPath><clipPath id="2ba11ba3e0"><rect x="0" width="24" y="0" height="26"/></clipPath><clipPath id="760eb42a19"><path d="M 226.199219 34.734375 L 245.871094 34.734375 L 245.871094 58.746094 L 226.199219 58.746094 Z M 226.199219 34.734375 " clip-rule="nonzero"/></clipPath><clipPath id="02dfd5a322"><path d="M 242.570312 52.917969 L 228.882812 34.851562 L 226.210938 34.851562 L 226.210938 58.742188 L 229.460938 58.742188 L 229.460938 40.589844 L 243.21875 58.742188 L 245.832031 58.742188 L 245.832031 34.851562 L 242.578125 34.851562 Z M 242.570312 52.917969 " clip-rule="nonzero"/></clipPath><clipPath id="2cce6bbf80"><path d="M 0.199219 0.734375 L 19.871094 0.734375 L 19.871094 24.746094 L 0.199219 24.746094 Z M 0.199219 0.734375 " clip-rule="nonzero"/></clipPath><clipPath id="36df2bb4d2"><path d="M 16.570312 18.917969 L 2.882812 0.851562 L 0.210938 0.851562 L 0.210938 24.742188 L 3.460938 24.742188 L 3.460938 6.589844 L 17.21875 24.742188 L 19.832031 24.742188 L 19.832031 0.851562 L 16.578125 0.851562 Z M 16.570312 18.917969 " clip-rule="nonzero"/></clipPath><clipPath id="9a2fdeb909"><rect x="0" width="20" y="0" height="25"/></clipPath><clipPath id="ae653d8bc7"><path d="M 132.042969 34.191406 L 156 34.191406 L 156 58.746094 L 132.042969 58.746094 Z M 132.042969 34.191406 " clip-rule="nonzero"/></clipPath><clipPath id="0ee9c6b1e7"><path d="M 155.957031 58.722656 C 151.964844 50.582031 147.976562 42.445312 143.996094 34.292969 C 140.027344 42.433594 136.066406 50.582031 132.097656 58.722656 L 135.546875 58.742188 L 143.996094 40.96875 L 152.445312 58.742188 Z M 155.957031 58.722656 " clip-rule="nonzero"/></clipPath><clipPath id="5db939e4d5"><path d="M 0.0429688 0.234375 L 24 0.234375 L 24 24.746094 L 0.0429688 24.746094 Z M 0.0429688 0.234375 " clip-rule="nonzero"/></clipPath><clipPath id="46943b8ea5"><path d="M 23.957031 24.722656 C 19.964844 16.582031 15.976562 8.445312 11.996094 0.292969 C 8.027344 8.433594 4.066406 16.582031 0.0976562 24.722656 L 3.546875 24.742188 L 11.996094 6.96875 L 20.445312 24.742188 Z M 23.957031 24.722656 " clip-rule="nonzero"/></clipPath><clipPath id="4b26ef7304"><rect x="0" width="24" y="0" height="25"/></clipPath><clipPath id="a6e147f62d"><path d="M 267.066406 34.820312 L 287.910156 34.820312 L 287.910156 58.757812 L 267.066406 58.757812 Z M 267.066406 34.820312 " clip-rule="nonzero"/></clipPath><clipPath id="a310143421"><path d="M 281.960938 53.546875 C 280.496094 55.050781 278.28125 55.800781 275.316406 55.800781 L 270.597656 55.800781 L 270.597656 37.796875 L 275.308594 37.796875 C 278.238281 37.796875 280.453125 38.542969 281.929688 40.03125 C 283.40625 41.515625 284.15625 43.769531 284.15625 46.773438 C 284.15625 49.773438 283.417969 52.027344 281.949219 53.535156 M 282.191406 36.21875 C 280.363281 35.300781 278.128906 34.84375 275.515625 34.84375 L 267.078125 34.84375 L 267.078125 58.742188 L 275.515625 58.742188 C 278.140625 58.742188 280.363281 58.285156 282.191406 57.355469 C 284.015625 56.429688 285.414062 55.082031 286.378906 53.304688 C 287.347656 51.53125 287.816406 49.355469 287.816406 46.78125 C 287.816406 44.207031 287.335938 42.035156 286.378906 40.257812 C 285.421875 38.484375 284.027344 37.148438 282.191406 36.230469 " clip-rule="nonzero"/></clipPath><clipPath id="1b3e095544"><path d="M 0.0664062 0.820312 L 20.828125 0.820312 L 20.828125 24.757812 L 0.0664062 24.757812 Z M 0.0664062 0.820312 " clip-rule="nonzero"/></clipPath><clipPath id="1068629c6d"><path d="M 14.960938 19.546875 C 13.496094 21.050781 11.28125 21.800781 8.316406 21.800781 L 3.597656 21.800781 L 3.597656 3.796875 L 8.308594 3.796875 C 11.238281 3.796875 13.453125 4.542969 14.929688 6.03125 C 16.40625 7.515625 17.15625 9.769531 17.15625 12.773438 C 17.15625 15.773438 16.417969 18.027344 14.949219 19.535156 M 15.191406 2.21875 C 13.363281 1.300781 11.128906 0.84375 8.515625 0.84375 L 0.078125 0.84375 L 0.078125 24.742188 L 8.515625 24.742188 C 11.140625 24.742188 13.363281 24.285156 15.191406 23.355469 C 17.015625 22.429688 18.414062 21.082031 19.378906 19.304688 C 20.347656 17.53125 20.816406 15.355469 20.816406 12.78125 C 20.816406 10.207031 20.335938 8.035156 19.378906 6.257812 C 18.421875 4.484375 17.027344 3.148438 15.191406 2.230469 " clip-rule="nonzero"/></clipPath><clipPath id="edfd707707"><rect x="0" width="21" y="0" height="25"/></clipPath><clipPath id="04d52f34a7"><path d="M 318.035156 34.820312 L 339.953125 34.820312 L 339.953125 58.757812 L 318.035156 58.757812 Z M 318.035156 34.820312 " clip-rule="nonzero"/></clipPath><clipPath id="edd130d688"><path d="M 339.945312 34.851562 L 336.046875 34.851562 L 329.132812 44.488281 L 322.21875 34.851562 L 318.148438 34.851562 L 327.308594 47.558594 L 327.308594 58.742188 L 330.796875 58.742188 L 330.796875 47.648438 Z M 339.945312 34.851562 " clip-rule="nonzero"/></clipPath><clipPath id="94acba98d5"><path d="M 0.0351562 0.820312 L 21.953125 0.820312 L 21.953125 24.757812 L 0.0351562 24.757812 Z M 0.0351562 0.820312 " clip-rule="nonzero"/></clipPath><clipPath id="90baeb2444"><path d="M 21.945312 0.851562 L 18.046875 0.851562 L 11.132812 10.488281 L 4.21875 0.851562 L 0.148438 0.851562 L 9.308594 13.558594 L 9.308594 24.742188 L 12.796875 24.742188 L 12.796875 13.648438 Z M 21.945312 0.851562 " clip-rule="nonzero"/></clipPath><clipPath id="a91508c786"><rect x="0" width="22" y="0" height="25"/></clipPath><clipPath id="6816b82bf0"><path d="M 293.15625 34.28125 L 317.09375 34.28125 L 317.09375 58.757812 L 293.15625 58.757812 Z M 293.15625 34.28125 " clip-rule="nonzero"/></clipPath><clipPath id="5f974c2127"><path d="M 317.054688 58.722656 C 313.0625 50.582031 309.074219 42.441406 305.09375 34.292969 C 301.121094 42.433594 297.164062 50.582031 293.191406 58.722656 L 296.644531 58.742188 L 305.09375 40.96875 L 313.542969 58.742188 Z M 317.054688 58.722656 " clip-rule="nonzero"/></clipPath><clipPath id="96e84b76a1"><path d="M 0.15625 0.28125 L 24.09375 0.28125 L 24.09375 24.757812 L 0.15625 24.757812 Z M 0.15625 0.28125 " clip-rule="nonzero"/></clipPath><clipPath id="2736ebef3d"><path d="M 24.054688 24.722656 C 20.0625 16.582031 16.074219 8.441406 12.09375 0.292969 C 8.121094 8.433594 4.164062 16.582031 0.191406 24.722656 L 3.644531 24.742188 L 12.09375 6.96875 L 20.542969 24.742188 Z M 24.054688 24.722656 " clip-rule="nonzero"/></clipPath><clipPath id="9178a08d5b"><rect x="0" width="25" y="0" height="25"/></clipPath></defs><g clip-path="url(#358e843ce1)"><path fill="#ffffff" d="M 0.308594 0 L 345.191406 0 L 345.191406 99.5 L 0.308594 99.5 Z M 0.308594 0 " fill-opacity="1" fill-rule="nonzero"/></g><g clip-path="url(#887f1d039c)"><g clip-path="url(#b2c7652e30)"><g transform="matrix(1, 0, 0, 1, 183, 82)"><g clip-path="url(#7b27adb557)"><g clip-path="url(#5974b7b965)"><g clip-path="url(#6d42c9525f)"><rect x="-259.065" width="497.88" fill="#333367" height="143.639994" y="-103.944999" fill-opacity="1"/></g></g></g></g></g></g><g clip-path="url(#c7ca78605e)"><g clip-path="url(#15204c498f)"><g transform="matrix(1, 0, 0, 1, 191, 82)"><g clip-path="url(#dc0893c2dc)"><g clip-path="url(#a2d5e52b5f)"><g clip-path="url(#72dee36f9e)"><rect x="-267.065" width="497.88" fill="#333367" height="143.639994" y="-103.944999" fill-opacity="1"/></g></g></g></g></g></g><g clip-path="url(#94de9b9970)"><g clip-path="url(#6902161843)"><g transform="matrix(1, 0, 0, 1, 198, 82)"><g clip-path="url(#3bda06f2a9)"><g clip-path="url(#44f77c2832)"><g clip-path="url(#fd017bfd35)"><rect x="-274.065" width="497.88" fill="#333367" height="143.639994" y="-103.944999" fill-opacity="1"/></g></g></g></g></g></g><g clip-path="url(#7cfc141497)"><g clip-path="url(#81830dcfd7)"><g transform="matrix(1, 0, 0, 1, 176, 82)"><g clip-path="url(#8c6ab87e05)"><g clip-path="url(#65e5c4c07e)"><g clip-path="url(#f3644046aa)"><rect x="-252.065" width="497.88" fill="#333367" height="143.639994" y="-103.944999" fill-opacity="1"/></g></g></g></g></g></g><g clip-path="url(#596b967f13)"><g clip-path="url(#7c7cdb5948)"><g transform="matrix(1, 0, 0, 1, 155, 82)"><g clip-path="url(#848bd9045d)"><g clip-path="url(#4a1d483170)"><g clip-path="url(#e6d01e840e)"><rect x="-231.065" width="497.88" fill="#333367" height="143.639994" y="-103.944999" fill-opacity="1"/></g></g></g></g></g></g><g clip-path="url(#255a3ea87a)"><g clip-path="url(#dc290eceab)"><g transform="matrix(1, 0, 0, 1, 127, 82)"><g clip-path="url(#c068cb00a3)"><g clip-path="url(#b8e1003c68)"><g clip-path="url(#316a75535d)"><rect x="-203.065" width="497.88" fill="#333367" height="143.639994" y="-103.944999" fill-opacity="1"/></g></g></g></g></g></g><g clip-path="url(#a11e24a093)"><g clip-path="url(#59741ec1a6)"><g transform="matrix(1, 0, 0, 1, 170, 82)"><g clip-path="url(#750cc7f8e6)"><g clip-path="url(#ec875115a8)"><g clip-path="url(#4d071745d5)"><rect x="-246.065" width="497.88" fill="#333367" height="143.639994" y="-103.944999" fill-opacity="1"/></g></g></g></g></g></g><g clip-path="url(#de12ec11a0)"><g clip-path="url(#337b5629c8)"><g transform="matrix(1, 0, 0, 1, 119, 74)"><g clip-path="url(#4d3638e11a)"><g clip-path="url(#dfbefe7d3b)"><g clip-path="url(#c855761612)"><rect x="-195.065" width="497.88" fill="#333367" height="143.639994" y="-95.944999" fill-opacity="1"/></g></g></g></g></g></g><g clip-path="url(#b6fa56eb2b)"><g clip-path="url(#ad54ce47bb)"><g transform="matrix(1, 0, 0, 1, 205, 81)"><g clip-path="url(#cfaa1bf14f)"><g clip-path="url(#84a7add87c)"><g clip-path="url(#c77fdf5311)"><rect x="-281.065" width="497.88" fill="#333367" height="143.639994" y="-102.944999" fill-opacity="1"/></g></g></g></g></g></g><g clip-path="url(#8b0b90c805)"><g clip-path="url(#bc5da24d3a)"><g transform="matrix(1, 0, 0, 1, 151, 4)"><g clip-path="url(#c14de983d1)"><g clip-path="url(#eca3038ac7)"><g clip-path="url(#4f4d33ea97)"><rect x="-227.065" width="497.88" fill="#333367" height="143.639994" y="-25.944999" fill-opacity="1"/></g></g></g></g></g></g><g clip-path="url(#e1f185714e)"><g clip-path="url(#a9efdb8978)"><g transform="matrix(1, 0, 0, 1, 180, 4)"><g clip-path="url(#697bb72456)"><g clip-path="url(#cbfb2d1dbf)"><g clip-path="url(#1b2d6d8c77)"><rect x="-256.065" width="497.88" fill="#333367" height="143.639994" y="-25.944999" fill-opacity="1"/></g></g></g></g></g></g><g clip-path="url(#8b735968de)"><g clip-path="url(#2bbf4ae77b)"><g transform="matrix(1, 0, 0, 1, 168, 5)"><g clip-path="url(#1d111623cf)"><g clip-path="url(#78b13a252c)"><g clip-path="url(#d18c2d6f56)"><rect x="-244.065" width="497.88" fill="#333367" height="143.639994" y="-26.944999" fill-opacity="1"/></g></g></g></g></g></g><g clip-path="url(#92bdcd9ddb)"><g transform="matrix(1, 0, 0, 1, 5, 34)"><g clip-path="url(#a6dd07ec6e)"><g clip-path="url(#53ecfd5a75)"><rect x="-81.065" width="497.88" fill="#333367" height="143.639994" y="-55.944999" fill-opacity="1"/></g></g></g></g><g clip-path="url(#58d09df316)"><g clip-path="url(#ca971badfc)"><g transform="matrix(1, 0, 0, 1, 17, 34)"><g clip-path="url(#050c31bd89)"><g clip-path="url(#6967d7daaa)"><g clip-path="url(#40828de8df)"><rect x="-93.065" width="497.88" fill="#333367" height="143.639994" y="-55.944999" fill-opacity="1"/></g></g></g></g></g></g><g clip-path="url(#58480582dc)"><g clip-path="url(#37e3f3a805)"><g transform="matrix(1, 0, 0, 1, 45, 34)"><g clip-path="url(#b94e840294)"><g clip-path="url(#d3e57056db)"><g clip-path="url(#f428547d10)"><rect x="-121.065" width="497.88" fill="#333367" height="143.639994" y="-55.944999" fill-opacity="1"/></g></g></g></g></g></g><g clip-path="url(#5a43e10c84)"><g clip-path="url(#bfa13483b5)"><g transform="matrix(1, 0, 0, 1, 70, 34)"><g clip-path="url(#22067a0324)"><g clip-path="url(#159fa05985)"><g clip-path="url(#85caed9a38)"><rect x="-146.065" width="497.88" fill="#333367" height="143.639994" y="-55.944999" fill-opacity="1"/></g></g></g></g></g></g><g clip-path="url(#9d0a8297d0)"><g transform="matrix(1, 0, 0, 1, 95, 34)"><g clip-path="url(#29a87aa359)"><g clip-path="url(#f4af10e6ba)"><rect x="-171.065" width="497.88" fill="#333367" height="143.639994" y="-55.944999" fill-opacity="1"/></g></g></g></g><g clip-path="url(#46268d950c)"><g clip-path="url(#e7446921d6)"><g transform="matrix(1, 0, 0, 1, 108, 34)"><g clip-path="url(#fd1deda58d)"><g clip-path="url(#1483914369)"><g clip-path="url(#bd5c9ecaac)"><rect x="-184.065" width="497.88" fill="#333367" height="143.639994" y="-55.944999" fill-opacity="1"/></g></g></g></g></g></g><g clip-path="url(#3f1e8043b0)"><g transform="matrix(1, 0, 0, 1, 157, 34)"><g clip-path="url(#a5aa92c563)"><g clip-path="url(#faecc42be4)"><rect x="-233.065" width="497.88" fill="#333367" height="143.639994" y="-55.944999" fill-opacity="1"/></g></g></g></g><g clip-path="url(#a17d4d6ea5)"><g transform="matrix(1, 0, 0, 1, 184, 34)"><g clip-path="url(#5de0cee4a5)"><g clip-path="url(#9a4be1c0bc)"><rect x="-260.065" width="497.88" fill="#333367" height="143.639994" y="-55.944999" fill-opacity="1"/></g></g></g></g><g clip-path="url(#5c264b062c)"><g clip-path="url(#bb232c4c69)"><g transform="matrix(1, 0, 0, 1, 195, 34)"><g clip-path="url(#2ba11ba3e0)"><g clip-path="url(#090c66848f)"><g clip-path="url(#1555fda626)"><rect x="-271.065" width="497.88" fill="#333367" height="143.639994" y="-55.944999" fill-opacity="1"/></g></g></g></g></g></g><g clip-path="url(#760eb42a19)"><g clip-path="url(#02dfd5a322)"><g transform="matrix(1, 0, 0, 1, 226, 34)"><g clip-path="url(#9a2fdeb909)"><g clip-path="url(#2cce6bbf80)"><g clip-path="url(#36df2bb4d2)"><rect x="-302.065" width="497.88" fill="#333367" height="143.639994" y="-55.944999" fill-opacity="1"/></g></g></g></g></g></g><g clip-path="url(#ae653d8bc7)"><g clip-path="url(#0ee9c6b1e7)"><g transform="matrix(1, 0, 0, 1, 132, 34)"><g clip-path="url(#4b26ef7304)"><g clip-path="url(#5db939e4d5)"><g clip-path="url(#46943b8ea5)"><rect x="-208.065" width="497.88" fill="#333367" height="143.639994" y="-55.944999" fill-opacity="1"/></g></g></g></g></g></g><g clip-path="url(#a6e147f62d)"><g clip-path="url(#a310143421)"><g transform="matrix(1, 0, 0, 1, 267, 34)"><g clip-path="url(#edfd707707)"><g clip-path="url(#1b3e095544)"><g clip-path="url(#1068629c6d)"><rect x="-343.065" width="497.88" fill="#333367" height="143.639994" y="-55.944999" fill-opacity="1"/></g></g></g></g></g></g><g clip-path="url(#04d52f34a7)"><g clip-path="url(#edd130d688)"><g transform="matrix(1, 0, 0, 1, 318, 34)"><g clip-path="url(#a91508c786)"><g clip-path="url(#94acba98d5)"><g clip-path="url(#90baeb2444)"><rect x="-394.065" width="497.88" fill="#333367" height="143.639994" y="-55.944999" fill-opacity="1"/></g></g></g></g></g></g><g clip-path="url(#6816b82bf0)"><g clip-path="url(#5f974c2127)"><g transform="matrix(1, 0, 0, 1, 293, 34)"><g clip-path="url(#9178a08d5b)"><g clip-path="url(#96e84b76a1)"><g clip-path="url(#2736ebef3d)"><rect x="-369.065" width="497.88" fill="#333367" height="143.639994" y="-55.944999" fill-opacity="1"/></g></g></g></g></g></g></svg>