<svg xmlns="http://www.w3.org/2000/svg" xmlns:xlink="http://www.w3.org/1999/xlink" width="177" zoomAndPan="magnify" viewBox="0 0 132.75 108.749999" height="145" preserveAspectRatio="xMidYMid meet" version="1.0"><defs><clipPath id="c52d809c76"><path d="M 5.015625 4.988281 L 10.363281 4.988281 L 10.363281 67.644531 L 5.015625 67.644531 Z M 5.015625 4.988281 " clip-rule="nonzero"/></clipPath><clipPath id="7aad6be754"><path d="M 0.015625 0.988281 L 5.363281 0.988281 L 5.363281 63.644531 L 0.015625 63.644531 Z M 0.015625 0.988281 " clip-rule="nonzero"/></clipPath><clipPath id="eb0b8ef703"><rect x="0" width="6" y="0" height="64"/></clipPath><clipPath id="f7ba3429e5"><path d="M 20.785156 5.078125 L 72.207031 5.078125 L 72.207031 67.703125 L 20.785156 67.703125 Z M 20.785156 5.078125 " clip-rule="nonzero"/></clipPath><clipPath id="ace79380cc"><path d="M 38.234375 5.078125 L 20.785156 5.078125 L 20.785156 67.683594 L 38.234375 67.683594 C 47.691406 67.683594 55.207031 66.027344 62.210938 59.382812 C 68.625 53.316406 72.007812 45.097656 72.007812 36.464844 C 72.007812 27.496094 68.546875 19.105469 61.871094 12.96875 C 54.867188 6.574219 47.523438 5.078125 38.234375 5.078125 " clip-rule="nonzero"/></clipPath><clipPath id="ae0ea31db2"><path d="M 0.785156 0.078125 L 52.101562 0.078125 L 52.101562 62.703125 L 0.785156 62.703125 Z M 0.785156 0.078125 " clip-rule="nonzero"/></clipPath><clipPath id="0a7e2487bc"><path d="M 18.234375 0.078125 L 0.785156 0.078125 L 0.785156 62.683594 L 18.234375 62.683594 C 27.691406 62.683594 35.207031 61.027344 42.210938 54.382812 C 48.625 48.316406 52.007812 40.097656 52.007812 31.464844 C 52.007812 22.496094 48.546875 14.105469 41.871094 7.96875 C 34.867188 1.574219 27.523438 0.078125 18.234375 0.078125 " clip-rule="nonzero"/></clipPath><clipPath id="d94600fa7b"><rect x="0" width="53" y="0" height="63"/></clipPath><clipPath id="b75ec5ba5c"><path d="M 79 88.882812 L 82.160156 88.882812 L 82.160156 91.304688 L 79 91.304688 Z M 79 88.882812 " clip-rule="nonzero"/></clipPath><clipPath id="12c21e6752"><path d="M 81.011719 88.957031 L 79.007812 88.957031 L 79.007812 91.304688 L 81.011719 91.304688 C 81.660156 91.304688 82.160156 90.792969 82.160156 90.136719 C 82.160156 89.476562 81.660156 88.96875 81.011719 88.96875 " clip-rule="nonzero"/></clipPath><clipPath id="62bf1eb119"><path d="M 0 0.882812 L 3.160156 0.882812 L 3.160156 3.304688 L 0 3.304688 Z M 0 0.882812 " clip-rule="nonzero"/></clipPath><clipPath id="4479fbf7d6"><path d="M 2.011719 0.957031 L 0.0078125 0.957031 L 0.0078125 3.304688 L 2.011719 3.304688 C 2.660156 3.304688 3.160156 2.792969 3.160156 2.136719 C 3.160156 1.476562 2.660156 0.96875 2.011719 0.96875 " clip-rule="nonzero"/></clipPath><clipPath id="1e8f7b75bb"><rect x="0" width="4" y="0" height="4"/></clipPath><clipPath id="8b43b35238"><path d="M 87.253906 89.140625 L 89.800781 89.140625 L 89.800781 92.578125 L 87.253906 92.578125 Z M 87.253906 89.140625 " clip-rule="nonzero"/></clipPath><clipPath id="9446212629"><path d="M 87.328125 92.570312 L 89.78125 92.570312 L 88.554688 89.226562 Z M 87.328125 92.570312 " clip-rule="nonzero"/></clipPath><clipPath id="79907c73e2"><path d="M 0.253906 0.140625 L 2.800781 0.140625 L 2.800781 3.578125 L 0.253906 3.578125 Z M 0.253906 0.140625 " clip-rule="nonzero"/></clipPath><clipPath id="c5edfbd6be"><path d="M 0.328125 3.570312 L 2.78125 3.570312 L 1.554688 0.226562 Z M 0.328125 3.570312 " clip-rule="nonzero"/></clipPath><clipPath id="ee65deedfe"><rect x="0" width="3" y="0" height="4"/></clipPath><clipPath id="c9d6066144"><path d="M 95.273438 88.882812 L 99.476562 88.882812 L 99.476562 94.234375 L 95.273438 94.234375 Z M 95.273438 88.882812 " clip-rule="nonzero"/></clipPath><clipPath id="d845528d40"><path d="M 96.835938 88.957031 L 95.277344 88.957031 L 95.277344 94.144531 L 96.835938 94.144531 C 98.3125 94.144531 99.410156 93.039062 99.410156 91.550781 C 99.410156 90.066406 98.3125 88.957031 96.835938 88.957031 " clip-rule="nonzero"/></clipPath><clipPath id="4346b308b6"><path d="M 0.273438 0.882812 L 4.476562 0.882812 L 4.476562 6.234375 L 0.273438 6.234375 Z M 0.273438 0.882812 " clip-rule="nonzero"/></clipPath><clipPath id="f714ff2f28"><path d="M 1.835938 0.957031 L 0.277344 0.957031 L 0.277344 6.144531 L 1.835938 6.144531 C 3.3125 6.144531 4.410156 5.039062 4.410156 3.550781 C 4.410156 2.066406 3.3125 0.957031 1.835938 0.957031 " clip-rule="nonzero"/></clipPath><clipPath id="af837fd7b7"><rect x="0" width="5" y="0" height="7"/></clipPath><clipPath id="857cfada11"><path d="M 71 89.140625 L 73.5 89.140625 L 73.5 92.578125 L 71 92.578125 Z M 71 89.140625 " clip-rule="nonzero"/></clipPath><clipPath id="a89166d2a5"><path d="M 71.042969 92.570312 L 73.5 92.570312 L 72.28125 89.226562 Z M 71.042969 92.570312 " clip-rule="nonzero"/></clipPath><clipPath id="0a228210b3"><path d="M 0 0.140625 L 2.5 0.140625 L 2.5 3.578125 L 0 3.578125 Z M 0 0.140625 " clip-rule="nonzero"/></clipPath><clipPath id="42bc77c624"><path d="M 0.0429688 3.570312 L 2.5 3.570312 L 1.28125 0.226562 Z M 0.0429688 3.570312 " clip-rule="nonzero"/></clipPath><clipPath id="851b6442ec"><rect x="0" width="3" y="0" height="4"/></clipPath><clipPath id="dbfcb69a5f"><path d="M 46.503906 89.140625 L 49.050781 89.140625 L 49.050781 92.578125 L 46.503906 92.578125 Z M 46.503906 89.140625 " clip-rule="nonzero"/></clipPath><clipPath id="d4ace859d1"><path d="M 46.550781 92.570312 L 49.003906 92.570312 L 47.777344 89.226562 Z M 46.550781 92.570312 " clip-rule="nonzero"/></clipPath><clipPath id="380caca470"><path d="M 0.503906 0.140625 L 3.050781 0.140625 L 3.050781 3.578125 L 0.503906 3.578125 Z M 0.503906 0.140625 " clip-rule="nonzero"/></clipPath><clipPath id="51e23ef4bb"><path d="M 0.550781 3.570312 L 3.003906 3.570312 L 1.777344 0.226562 Z M 0.550781 3.570312 " clip-rule="nonzero"/></clipPath><clipPath id="ab69858d5c"><rect x="0" width="4" y="0" height="4"/></clipPath><clipPath id="71d8018e41"><path d="M 15.054688 88.882812 L 19.253906 88.882812 L 19.253906 94.234375 L 15.054688 94.234375 Z M 15.054688 88.882812 " clip-rule="nonzero"/></clipPath><clipPath id="e6cdaa9f00"><path d="M 16.679688 88.957031 L 15.121094 88.957031 L 15.121094 94.144531 L 16.679688 94.144531 C 18.15625 94.144531 19.253906 93.039062 19.253906 91.550781 C 19.253906 90.066406 18.15625 88.957031 16.679688 88.957031 " clip-rule="nonzero"/></clipPath><clipPath id="418cc00e28"><path d="M 0.113281 0.882812 L 4.253906 0.882812 L 4.253906 6.234375 L 0.113281 6.234375 Z M 0.113281 0.882812 " clip-rule="nonzero"/></clipPath><clipPath id="d35353dca7"><path d="M 1.679688 0.957031 L 0.121094 0.957031 L 0.121094 6.144531 L 1.679688 6.144531 C 3.15625 6.144531 4.253906 5.039062 4.253906 3.550781 C 4.253906 2.066406 3.15625 0.957031 1.679688 0.957031 " clip-rule="nonzero"/></clipPath><clipPath id="1f052d2551"><rect x="0" width="5" y="0" height="7"/></clipPath><clipPath id="8018949d20"><path d="M 63.566406 88.882812 L 66.878906 88.882812 L 66.878906 91.429688 L 63.566406 91.429688 Z M 63.566406 88.882812 " clip-rule="nonzero"/></clipPath><clipPath id="4a8c4155df"><path d="M 65.667969 88.957031 L 63.570312 88.957031 L 63.570312 91.371094 L 65.65625 91.371094 C 66.335938 91.371094 66.84375 90.855469 66.84375 90.164062 C 66.84375 89.476562 66.335938 88.957031 65.65625 88.957031 " clip-rule="nonzero"/></clipPath><clipPath id="cf25dd62b2"><path d="M 0.566406 0.882812 L 3.878906 0.882812 L 3.878906 3.429688 L 0.566406 3.429688 Z M 0.566406 0.882812 " clip-rule="nonzero"/></clipPath><clipPath id="11ce31dad5"><path d="M 2.667969 0.957031 L 0.570312 0.957031 L 0.570312 3.371094 L 2.65625 3.371094 C 3.335938 3.371094 3.84375 2.855469 3.84375 2.164062 C 3.84375 1.476562 3.335938 0.957031 2.65625 0.957031 " clip-rule="nonzero"/></clipPath><clipPath id="dac95bfd42"><rect x="0" width="4" y="0" height="4"/></clipPath><clipPath id="477474fbd8"><path d="M 5 80.226562 L 127.492188 80.226562 L 127.492188 102.890625 L 5 102.890625 Z M 5 80.226562 " clip-rule="nonzero"/></clipPath><clipPath id="6a3522a916"><path d="M 116.867188 95.722656 L 114.804688 92.710938 L 112.738281 95.722656 L 110.703125 95.722656 L 113.675781 91.542969 L 110.753906 87.390625 L 112.808594 87.390625 L 114.832031 90.375 L 116.839844 87.390625 L 118.882812 87.390625 L 115.960938 91.542969 L 118.933594 95.722656 Z M 106.394531 95.871094 C 103.878906 95.871094 102.003906 94.015625 102.003906 91.5625 C 102.003906 89.109375 103.890625 87.253906 106.394531 87.253906 C 108.886719 87.253906 110.78125 89.109375 110.78125 91.5625 C 110.78125 94.015625 108.886719 95.871094 106.394531 95.871094 M 96.875 95.722656 L 93.613281 95.722656 L 93.613281 87.390625 L 96.875 87.390625 C 99.300781 87.390625 101.125 89.179688 101.125 91.550781 C 101.125 93.925781 99.300781 95.722656 96.875 95.722656 M 90.9375 95.722656 L 90.351562 94.105469 L 86.757812 94.105469 L 86.179688 95.722656 L 84.382812 95.722656 L 87.597656 87.390625 L 89.5625 87.390625 L 92.765625 95.722656 Z M 82.050781 95.722656 L 80.144531 92.75 L 79.007812 92.75 L 79.007812 95.722656 L 77.339844 95.722656 L 77.339844 87.390625 L 81.042969 87.390625 C 82.648438 87.390625 83.863281 88.558594 83.863281 90.117188 C 83.863281 91.3125 83.117188 92.261719 82.019531 92.601562 L 84.105469 95.710938 Z M 74.65625 95.722656 L 74.066406 94.105469 L 70.484375 94.105469 L 69.90625 95.722656 L 68.109375 95.722656 L 71.324219 87.390625 L 73.289062 87.390625 L 76.492188 95.722656 Z M 65.695312 92.949219 L 63.570312 92.949219 L 63.570312 95.722656 L 61.90625 95.722656 L 61.90625 87.390625 L 65.695312 87.390625 C 67.3125 87.390625 68.558594 88.589844 68.558594 90.164062 C 68.558594 91.742188 67.3125 92.9375 65.695312 92.9375 M 58.015625 95.710938 L 52.835938 95.710938 L 52.835938 87.390625 L 54.503906 87.390625 L 54.503906 94.15625 L 58.015625 94.15625 Z M 50.152344 95.710938 L 49.5625 94.097656 L 45.980469 94.097656 L 45.402344 95.710938 L 43.605469 95.710938 L 46.820312 87.382812 L 48.785156 87.382812 L 51.988281 95.710938 Z M 41.890625 95.710938 L 40.234375 95.710938 L 40.234375 88.96875 L 37.96875 88.96875 L 37.96875 87.390625 L 44.175781 87.390625 L 44.175781 88.957031 L 41.902344 88.957031 Z M 36.792969 95.710938 L 35.136719 95.710938 L 35.136719 87.390625 L 36.804688 87.390625 Z M 33.859375 91.621094 C 33.859375 94.035156 32.0625 95.871094 29.589844 95.871094 C 27.074219 95.871094 25.199219 94.015625 25.199219 91.5625 C 25.199219 89.109375 27.085938 87.253906 29.589844 87.253906 C 31.546875 87.253906 33.171875 88.398438 33.660156 90.015625 L 31.792969 90.015625 C 31.34375 89.308594 30.539062 88.859375 29.589844 88.859375 C 28.054688 88.859375 26.894531 90.015625 26.894531 91.5625 C 26.894531 93.109375 28.054688 94.265625 29.589844 94.265625 C 30.785156 94.265625 31.765625 93.578125 32.0625 92.550781 L 29.847656 92.550781 L 29.847656 91.042969 L 33.859375 91.042969 Z M 23.914062 95.722656 L 22.246094 95.722656 L 22.246094 87.390625 L 23.914062 87.390625 Z M 16.71875 95.722656 L 13.457031 95.722656 L 13.457031 87.390625 L 16.71875 87.390625 C 19.144531 87.390625 20.96875 89.179688 20.96875 91.550781 C 20.96875 93.925781 19.144531 95.722656 16.71875 95.722656 M 5.015625 102.867188 L 127.363281 102.867188 L 127.363281 80.25 L 5.015625 80.25 Z M 5.015625 102.867188 " clip-rule="nonzero"/></clipPath><clipPath id="b9831aaffe"><path d="M 0 0.226562 L 122.414062 0.226562 L 122.414062 22.890625 L 0 22.890625 Z M 0 0.226562 " clip-rule="nonzero"/></clipPath><clipPath id="e8f74bcf47"><path d="M 111.867188 15.722656 L 109.804688 12.710938 L 107.738281 15.722656 L 105.703125 15.722656 L 108.675781 11.542969 L 105.753906 7.390625 L 107.808594 7.390625 L 109.832031 10.375 L 111.839844 7.390625 L 113.882812 7.390625 L 110.960938 11.542969 L 113.933594 15.722656 Z M 101.394531 15.871094 C 98.878906 15.871094 97.003906 14.015625 97.003906 11.5625 C 97.003906 9.109375 98.890625 7.253906 101.394531 7.253906 C 103.886719 7.253906 105.78125 9.109375 105.78125 11.5625 C 105.78125 14.015625 103.886719 15.871094 101.394531 15.871094 M 91.875 15.722656 L 88.613281 15.722656 L 88.613281 7.390625 L 91.875 7.390625 C 94.300781 7.390625 96.125 9.179688 96.125 11.550781 C 96.125 13.925781 94.300781 15.722656 91.875 15.722656 M 85.9375 15.722656 L 85.351562 14.105469 L 81.757812 14.105469 L 81.179688 15.722656 L 79.382812 15.722656 L 82.597656 7.390625 L 84.5625 7.390625 L 87.765625 15.722656 Z M 77.050781 15.722656 L 75.144531 12.75 L 74.007812 12.75 L 74.007812 15.722656 L 72.339844 15.722656 L 72.339844 7.390625 L 76.042969 7.390625 C 77.648438 7.390625 78.863281 8.558594 78.863281 10.117188 C 78.863281 11.3125 78.117188 12.261719 77.019531 12.601562 L 79.105469 15.710938 Z M 69.65625 15.722656 L 69.066406 14.105469 L 65.484375 14.105469 L 64.90625 15.722656 L 63.109375 15.722656 L 66.324219 7.390625 L 68.289062 7.390625 L 71.492188 15.722656 Z M 60.695312 12.949219 L 58.570312 12.949219 L 58.570312 15.722656 L 56.90625 15.722656 L 56.90625 7.390625 L 60.695312 7.390625 C 62.3125 7.390625 63.558594 8.589844 63.558594 10.164062 C 63.558594 11.742188 62.3125 12.9375 60.695312 12.9375 M 53.015625 15.710938 L 47.835938 15.710938 L 47.835938 7.390625 L 49.503906 7.390625 L 49.503906 14.15625 L 53.015625 14.15625 Z M 45.152344 15.710938 L 44.5625 14.097656 L 40.980469 14.097656 L 40.402344 15.710938 L 38.605469 15.710938 L 41.820312 7.382812 L 43.785156 7.382812 L 46.988281 15.710938 Z M 36.890625 15.710938 L 35.234375 15.710938 L 35.234375 8.96875 L 32.96875 8.96875 L 32.96875 7.390625 L 39.175781 7.390625 L 39.175781 8.957031 L 36.902344 8.957031 Z M 31.792969 15.710938 L 30.136719 15.710938 L 30.136719 7.390625 L 31.804688 7.390625 Z M 28.859375 11.621094 C 28.859375 14.035156 27.0625 15.871094 24.589844 15.871094 C 22.074219 15.871094 20.199219 14.015625 20.199219 11.5625 C 20.199219 9.109375 22.085938 7.253906 24.589844 7.253906 C 26.546875 7.253906 28.171875 8.398438 28.660156 10.015625 L 26.792969 10.015625 C 26.34375 9.308594 25.539062 8.859375 24.589844 8.859375 C 23.054688 8.859375 21.894531 10.015625 21.894531 11.5625 C 21.894531 13.109375 23.054688 14.265625 24.589844 14.265625 C 25.785156 14.265625 26.765625 13.578125 27.0625 12.550781 L 24.847656 12.550781 L 24.847656 11.042969 L 28.859375 11.042969 Z M 18.914062 15.722656 L 17.246094 15.722656 L 17.246094 7.390625 L 18.914062 7.390625 Z M 11.71875 15.722656 L 8.457031 15.722656 L 8.457031 7.390625 L 11.71875 7.390625 C 14.144531 7.390625 15.96875 9.179688 15.96875 11.550781 C 15.96875 13.925781 14.144531 15.722656 11.71875 15.722656 M 0.015625 22.867188 L 122.363281 22.867188 L 122.363281 0.25 L 0.015625 0.25 Z M 0.015625 22.867188 " clip-rule="nonzero"/></clipPath><clipPath id="3c019f57e6"><rect x="0" width="123" y="0" height="23"/></clipPath><clipPath id="85d13f45ce"><path d="M 103.679688 88.757812 L 109.15625 88.757812 L 109.15625 94.359375 L 103.679688 94.359375 Z M 103.679688 88.757812 " clip-rule="nonzero"/></clipPath><clipPath id="076f46a0e6"><path d="M 106.382812 88.859375 C 104.847656 88.859375 103.6875 90.015625 103.6875 91.5625 C 103.6875 93.109375 104.847656 94.265625 106.382812 94.265625 C 107.898438 94.265625 109.066406 93.109375 109.066406 91.5625 C 109.066406 90.015625 107.910156 88.859375 106.382812 88.859375 " clip-rule="nonzero"/></clipPath><clipPath id="f570c643ae"><path d="M 0.679688 0.835938 L 6.15625 0.835938 L 6.15625 6.34375 L 0.679688 6.34375 Z M 0.679688 0.835938 " clip-rule="nonzero"/></clipPath><clipPath id="158bf514d2"><path d="M 3.382812 0.859375 C 1.847656 0.859375 0.6875 2.015625 0.6875 3.5625 C 0.6875 5.109375 1.847656 6.265625 3.382812 6.265625 C 4.898438 6.265625 6.066406 5.109375 6.066406 3.5625 C 6.066406 2.015625 4.910156 0.859375 3.382812 0.859375 " clip-rule="nonzero"/></clipPath><clipPath id="ef1c75f3bf"><rect x="0" width="7" y="0" height="7"/></clipPath><clipPath id="b5c7df1aff"><path d="M 82.292969 4.9375 L 102.695312 4.9375 L 102.695312 34 L 82.292969 34 Z M 82.292969 4.9375 " clip-rule="nonzero"/></clipPath><clipPath id="c7a3fc1630"><path d="M 96.300781 23.125 C 97.1875 22.207031 97.957031 21.320312 98.59375 20.472656 C 99.234375 19.625 99.761719 18.785156 100.179688 17.980469 C 100.601562 17.171875 100.910156 16.351562 101.109375 15.523438 C 101.308594 14.695312 101.40625 13.859375 101.40625 12.988281 C 101.40625 11.285156 101.039062 9.835938 100.308594 8.648438 C 99.582031 7.460938 98.515625 6.554688 97.109375 5.925781 C 95.699219 5.296875 93.976562 4.988281 91.917969 4.988281 C 90.082031 4.988281 88.308594 5.296875 86.601562 5.925781 C 84.894531 6.554688 83.480469 7.371094 82.339844 8.402344 L 84.085938 12.292969 C 85.195312 11.292969 86.351562 10.554688 87.558594 10.078125 C 88.765625 9.597656 90.003906 9.367188 91.269531 9.367188 C 92.898438 9.367188 94.132812 9.71875 94.984375 10.425781 C 95.832031 11.132812 96.257812 12.160156 96.257812 13.507812 C 96.257812 14.207031 96.140625 14.914062 95.890625 15.613281 C 95.640625 16.3125 95.273438 17.050781 94.773438 17.808594 C 94.273438 18.566406 93.605469 19.394531 92.769531 20.285156 L 83.519531 30.152344 L 83.519531 34 L 102.503906 34 L 102.503906 29.703125 L 89.996094 29.703125 Z M 96.300781 23.125 " clip-rule="nonzero"/></clipPath><clipPath id="3e8e14e94e"><path d="M 0.292969 0.9375 L 20.511719 0.9375 L 20.511719 30 L 0.292969 30 Z M 0.292969 0.9375 " clip-rule="nonzero"/></clipPath><clipPath id="fe2c84caa5"><path d="M 14.300781 19.125 C 15.1875 18.207031 15.957031 17.320312 16.59375 16.472656 C 17.234375 15.625 17.761719 14.785156 18.179688 13.980469 C 18.601562 13.171875 18.910156 12.351562 19.109375 11.523438 C 19.308594 10.695312 19.40625 9.859375 19.40625 8.988281 C 19.40625 7.285156 19.039062 5.835938 18.308594 4.648438 C 17.582031 3.460938 16.515625 2.554688 15.109375 1.925781 C 13.699219 1.296875 11.976562 0.988281 9.917969 0.988281 C 8.082031 0.988281 6.308594 1.296875 4.601562 1.925781 C 2.894531 2.554688 1.480469 3.371094 0.339844 4.402344 L 2.085938 8.292969 C 3.195312 7.292969 4.351562 6.554688 5.558594 6.078125 C 6.765625 5.597656 8.003906 5.367188 9.269531 5.367188 C 10.898438 5.367188 12.132812 5.71875 12.984375 6.425781 C 13.832031 7.132812 14.257812 8.160156 14.257812 9.507812 C 14.257812 10.207031 14.140625 10.914062 13.890625 11.613281 C 13.640625 12.3125 13.273438 13.050781 12.773438 13.808594 C 12.273438 14.566406 11.605469 15.394531 10.769531 16.285156 L 1.519531 26.152344 L 1.519531 30 L 20.503906 30 L 20.503906 25.703125 L 7.996094 25.703125 Z M 14.300781 19.125 " clip-rule="nonzero"/></clipPath><clipPath id="3af7377724"><rect x="0" width="21" y="0" height="30"/></clipPath><clipPath id="11e8f8a203"><path d="M 106.34375 4.9375 L 127.390625 4.9375 L 127.390625 34.574219 L 106.34375 34.574219 Z M 106.34375 4.9375 " clip-rule="nonzero"/></clipPath><clipPath id="cc6a990da1"><path d="M 112.730469 11.703125 C 113.621094 10.066406 114.976562 9.25 116.792969 9.25 C 118.628906 9.25 119.996094 10.066406 120.875 11.703125 C 121.75 13.339844 122.191406 15.972656 122.191406 19.59375 C 122.191406 23.246094 121.75 25.921875 120.875 27.605469 C 119.996094 29.292969 118.636719 30.140625 116.792969 30.140625 C 114.976562 30.140625 113.628906 29.292969 112.730469 27.605469 C 111.832031 25.921875 111.394531 23.257812 111.394531 19.636719 C 111.394531 15.984375 111.84375 13.339844 112.730469 11.703125 M 111.09375 32.683594 C 112.652344 33.832031 114.546875 34.410156 116.792969 34.410156 C 119.066406 34.410156 120.972656 33.84375 122.519531 32.683594 C 124.066406 31.527344 125.234375 29.859375 126.03125 27.65625 C 126.828125 25.453125 127.226562 22.769531 127.226562 19.605469 C 127.226562 16.414062 126.839844 13.738281 126.050781 11.574219 C 125.261719 9.410156 124.09375 7.773438 122.539062 6.664062 C 120.984375 5.558594 119.066406 4.988281 116.792969 4.988281 C 114.546875 4.988281 112.652344 5.546875 111.09375 6.65625 C 109.539062 7.761719 108.363281 9.410156 107.5625 11.582031 C 106.765625 13.757812 106.367188 16.453125 106.367188 19.636719 C 106.367188 22.796875 106.765625 25.480469 107.5625 27.667969 C 108.363281 29.851562 109.539062 31.527344 111.09375 32.675781 " clip-rule="nonzero"/></clipPath><clipPath id="07aa665a6f"><path d="M 0.34375 0.9375 L 21.390625 0.9375 L 21.390625 30.480469 L 0.34375 30.480469 Z M 0.34375 0.9375 " clip-rule="nonzero"/></clipPath><clipPath id="f74e756ec1"><path d="M 6.730469 7.703125 C 7.621094 6.066406 8.976562 5.25 10.792969 5.25 C 12.628906 5.25 13.996094 6.066406 14.875 7.703125 C 15.75 9.339844 16.191406 11.972656 16.191406 15.59375 C 16.191406 19.246094 15.75 21.921875 14.875 23.605469 C 13.996094 25.292969 12.636719 26.140625 10.792969 26.140625 C 8.976562 26.140625 7.628906 25.292969 6.730469 23.605469 C 5.832031 21.921875 5.394531 19.257812 5.394531 15.636719 C 5.394531 11.984375 5.84375 9.339844 6.730469 7.703125 M 5.09375 28.683594 C 6.652344 29.832031 8.546875 30.410156 10.792969 30.410156 C 13.066406 30.410156 14.972656 29.84375 16.519531 28.683594 C 18.066406 27.527344 19.234375 25.859375 20.03125 23.65625 C 20.828125 21.453125 21.226562 18.769531 21.226562 15.605469 C 21.226562 12.414062 20.839844 9.738281 20.050781 7.574219 C 19.261719 5.410156 18.09375 3.773438 16.539062 2.664062 C 14.984375 1.558594 13.066406 0.988281 10.792969 0.988281 C 8.546875 0.988281 6.652344 1.546875 5.09375 2.65625 C 3.539062 3.761719 2.363281 5.410156 1.5625 7.582031 C 0.765625 9.757812 0.367188 12.453125 0.367188 15.636719 C 0.367188 18.796875 0.765625 21.480469 1.5625 23.667969 C 2.363281 25.851562 3.539062 27.527344 5.09375 28.675781 " clip-rule="nonzero"/></clipPath><clipPath id="af24d80684"><rect x="0" width="22" y="0" height="31"/></clipPath><clipPath id="02da8ff9a2"><path d="M 82.292969 38.011719 L 102.695312 38.011719 L 102.695312 67.21875 L 82.292969 67.21875 Z M 82.292969 38.011719 " clip-rule="nonzero"/></clipPath><clipPath id="671a7617f6"><path d="M 96.300781 56.332031 C 97.1875 55.414062 97.957031 54.523438 98.59375 53.675781 C 99.234375 52.828125 99.761719 51.992188 100.179688 51.183594 C 100.601562 50.375 100.910156 49.554688 101.109375 48.726562 C 101.308594 47.898438 101.40625 47.0625 101.40625 46.195312 C 101.40625 44.488281 101.039062 43.039062 100.308594 41.855469 C 99.582031 40.667969 98.515625 39.757812 97.109375 39.128906 C 95.699219 38.5 93.964844 38.191406 91.910156 38.191406 C 90.074219 38.191406 88.296875 38.5 86.59375 39.128906 C 84.886719 39.757812 83.480469 40.566406 82.339844 41.59375 L 84.085938 45.484375 C 85.195312 44.488281 86.351562 43.75 87.558594 43.269531 C 88.765625 42.792969 90.003906 42.5625 91.269531 42.5625 C 92.898438 42.5625 94.132812 42.910156 94.984375 43.621094 C 95.832031 44.328125 96.257812 45.355469 96.257812 46.703125 C 96.257812 47.402344 96.140625 48.109375 95.890625 48.808594 C 95.640625 49.507812 95.273438 50.246094 94.773438 51.003906 C 94.273438 51.761719 93.605469 52.589844 92.769531 53.476562 L 83.519531 63.34375 L 83.519531 67.195312 L 102.503906 67.195312 L 102.503906 62.90625 L 89.996094 62.90625 Z M 96.300781 56.332031 " clip-rule="nonzero"/></clipPath><clipPath id="209ecfa4bf"><path d="M 0.292969 0.0742188 L 20.511719 0.0742188 L 20.511719 29.21875 L 0.292969 29.21875 Z M 0.292969 0.0742188 " clip-rule="nonzero"/></clipPath><clipPath id="9f024d362b"><path d="M 14.300781 18.332031 C 15.1875 17.414062 15.957031 16.523438 16.59375 15.675781 C 17.234375 14.828125 17.761719 13.992188 18.179688 13.183594 C 18.601562 12.375 18.910156 11.554688 19.109375 10.726562 C 19.308594 9.898438 19.40625 9.0625 19.40625 8.195312 C 19.40625 6.488281 19.039062 5.039062 18.308594 3.855469 C 17.582031 2.667969 16.515625 1.757812 15.109375 1.128906 C 13.699219 0.5 11.964844 0.191406 9.910156 0.191406 C 8.074219 0.191406 6.296875 0.5 4.59375 1.128906 C 2.886719 1.757812 1.480469 2.566406 0.339844 3.59375 L 2.085938 7.484375 C 3.195312 6.488281 4.351562 5.75 5.558594 5.269531 C 6.765625 4.792969 8.003906 4.5625 9.269531 4.5625 C 10.898438 4.5625 12.132812 4.910156 12.984375 5.621094 C 13.832031 6.328125 14.257812 7.355469 14.257812 8.703125 C 14.257812 9.402344 14.140625 10.109375 13.890625 10.808594 C 13.640625 11.507812 13.273438 12.246094 12.773438 13.003906 C 12.273438 13.761719 11.605469 14.589844 10.769531 15.476562 L 1.519531 25.34375 L 1.519531 29.195312 L 20.503906 29.195312 L 20.503906 24.90625 L 7.996094 24.90625 Z M 14.300781 18.332031 " clip-rule="nonzero"/></clipPath><clipPath id="6bd4bb5b7b"><rect x="0" width="21" y="0" height="30"/></clipPath><clipPath id="85ff214970"><path d="M 106.558594 38.011719 L 127.390625 38.011719 L 127.390625 67.648438 L 106.558594 67.648438 Z M 106.558594 38.011719 " clip-rule="nonzero"/></clipPath><clipPath id="3602bee861"><path d="M 121.859375 60.96875 C 121.453125 61.769531 120.882812 62.386719 120.132812 62.816406 C 119.386719 63.246094 118.527344 63.464844 117.5625 63.464844 C 116.59375 63.464844 115.734375 63.246094 115.007812 62.816406 C 114.277344 62.386719 113.699219 61.769531 113.28125 60.96875 C 112.863281 60.171875 112.652344 59.261719 112.652344 58.234375 C 112.652344 57.179688 112.863281 56.261719 113.28125 55.472656 C 113.699219 54.683594 114.277344 54.074219 115.007812 53.625 C 115.734375 53.175781 116.59375 52.957031 117.5625 52.957031 C 118.527344 52.957031 119.394531 53.175781 120.132812 53.625 C 120.875 54.074219 121.453125 54.683594 121.859375 55.472656 C 122.269531 56.261719 122.46875 57.179688 122.46875 58.234375 C 122.46875 59.261719 122.269531 60.171875 121.859375 60.96875 M 123.199219 50.035156 C 121.921875 49.246094 120.464844 48.859375 118.816406 48.859375 C 117.492188 48.859375 116.285156 49.117188 115.207031 49.644531 C 114.128906 50.175781 113.242188 50.933594 112.550781 51.921875 C 112.203125 52.429688 111.914062 52.988281 111.683594 53.597656 L 111.683594 52.429688 C 111.683594 50.804688 111.84375 49.375 112.152344 48.148438 C 112.460938 46.921875 112.929688 45.894531 113.550781 45.066406 C 114.167969 44.238281 114.9375 43.621094 115.84375 43.199219 C 116.753906 42.78125 117.789062 42.570312 118.949219 42.570312 C 120.132812 42.570312 121.300781 42.792969 122.4375 43.242188 C 123.578125 43.6875 124.644531 44.367188 125.640625 45.285156 L 127.347656 41.394531 C 126.648438 40.714844 125.839844 40.148438 124.933594 39.667969 C 124.027344 39.191406 123.066406 38.832031 122.050781 38.570312 C 121.03125 38.3125 120.023438 38.183594 119.027344 38.183594 C 116.453125 38.183594 114.25 38.78125 112.414062 39.96875 C 110.578125 41.15625 109.171875 42.882812 108.191406 45.144531 C 107.214844 47.410156 106.734375 50.15625 106.734375 53.40625 C 106.734375 56.410156 107.164062 58.964844 108.03125 61.078125 C 108.902344 63.195312 110.167969 64.8125 111.824219 65.929688 C 113.480469 67.046875 115.496094 67.613281 117.851562 67.613281 C 119.714844 67.613281 121.363281 67.207031 122.777344 66.378906 C 124.195312 65.550781 125.3125 64.421875 126.101562 62.964844 C 126.890625 61.507812 127.296875 59.871094 127.296875 58.035156 C 127.296875 56.25 126.929688 54.664062 126.199219 53.289062 C 125.472656 51.910156 124.464844 50.824219 123.199219 50.042969 " clip-rule="nonzero"/></clipPath><clipPath id="0b13a251ba"><path d="M 0.582031 0.0742188 L 21.390625 0.0742188 L 21.390625 29.648438 L 0.582031 29.648438 Z M 0.582031 0.0742188 " clip-rule="nonzero"/></clipPath><clipPath id="25dee54ad9"><path d="M 15.859375 22.96875 C 15.453125 23.769531 14.882812 24.386719 14.132812 24.816406 C 13.386719 25.246094 12.527344 25.464844 11.5625 25.464844 C 10.59375 25.464844 9.734375 25.246094 9.007812 24.816406 C 8.277344 24.386719 7.699219 23.769531 7.28125 22.96875 C 6.863281 22.171875 6.652344 21.261719 6.652344 20.234375 C 6.652344 19.179688 6.863281 18.261719 7.28125 17.472656 C 7.699219 16.683594 8.277344 16.074219 9.007812 15.625 C 9.734375 15.175781 10.59375 14.957031 11.5625 14.957031 C 12.527344 14.957031 13.394531 15.175781 14.132812 15.625 C 14.875 16.074219 15.453125 16.683594 15.859375 17.472656 C 16.269531 18.261719 16.46875 19.179688 16.46875 20.234375 C 16.46875 21.261719 16.269531 22.171875 15.859375 22.96875 M 17.199219 12.035156 C 15.921875 11.246094 14.464844 10.859375 12.816406 10.859375 C 11.492188 10.859375 10.285156 11.117188 9.207031 11.644531 C 8.128906 12.175781 7.242188 12.933594 6.550781 13.921875 C 6.203125 14.429688 5.914062 14.988281 5.683594 15.597656 L 5.683594 14.429688 C 5.683594 12.804688 5.84375 11.375 6.152344 10.148438 C 6.460938 8.921875 6.929688 7.894531 7.550781 7.066406 C 8.167969 6.238281 8.9375 5.621094 9.84375 5.199219 C 10.753906 4.78125 11.789062 4.570312 12.949219 4.570312 C 14.132812 4.570312 15.300781 4.792969 16.4375 5.242188 C 17.578125 5.6875 18.644531 6.367188 19.640625 7.285156 L 21.347656 3.394531 C 20.648438 2.714844 19.839844 2.148438 18.933594 1.667969 C 18.027344 1.191406 17.066406 0.832031 16.050781 0.570312 C 15.03125 0.3125 14.023438 0.183594 13.027344 0.183594 C 10.453125 0.183594 8.25 0.78125 6.414062 1.96875 C 4.578125 3.15625 3.171875 4.882812 2.191406 7.144531 C 1.214844 9.410156 0.734375 12.15625 0.734375 15.40625 C 0.734375 18.410156 1.164062 20.964844 2.03125 23.078125 C 2.902344 25.195312 4.167969 26.8125 5.824219 27.929688 C 7.480469 29.046875 9.496094 29.613281 11.851562 29.613281 C 13.714844 29.613281 15.363281 29.207031 16.777344 28.378906 C 18.195312 27.550781 19.3125 26.421875 20.101562 24.964844 C 20.890625 23.507812 21.296875 21.871094 21.296875 20.035156 C 21.296875 18.25 20.929688 16.664062 20.199219 15.289062 C 19.472656 13.910156 18.464844 12.824219 17.199219 12.042969 " clip-rule="nonzero"/></clipPath><clipPath id="4ca6991605"><rect x="0" width="22" y="0" height="30"/></clipPath></defs><g clip-path="url(#c52d809c76)"><g transform="matrix(1, 0, 0, 1, 5, 4)"><g clip-path="url(#eb0b8ef703)"><g clip-path="url(#7aad6be754)"><path fill="#333367" d="M 0.015625 0.988281 L 5.363281 0.988281 L 5.363281 63.636719 L 0.015625 63.636719 Z M 0.015625 0.988281 " fill-opacity="1" fill-rule="nonzero"/></g></g></g></g><g clip-path="url(#f7ba3429e5)"><g clip-path="url(#ace79380cc)"><g transform="matrix(1, 0, 0, 1, 20, 5)"><g clip-path="url(#d94600fa7b)"><g clip-path="url(#ae0ea31db2)"><g clip-path="url(#0a7e2487bc)"><path fill="#333367" d="M 0.785156 0.078125 L 52.007812 0.078125 L 52.007812 62.703125 L 0.785156 62.703125 Z M 0.785156 0.078125 " fill-opacity="1" fill-rule="nonzero"/></g></g></g></g></g></g><g clip-path="url(#b75ec5ba5c)"><g clip-path="url(#12c21e6752)"><g transform="matrix(1, 0, 0, 1, 79, 88)"><g clip-path="url(#1e8f7b75bb)"><g clip-path="url(#62bf1eb119)"><g clip-path="url(#4479fbf7d6)"><rect x="-108.205" width="191.16" fill="#333367" height="156.599998" y="-111.925" fill-opacity="1"/></g></g></g></g></g></g><g clip-path="url(#8b43b35238)"><g clip-path="url(#9446212629)"><g transform="matrix(1, 0, 0, 1, 87, 89)"><g clip-path="url(#ee65deedfe)"><g clip-path="url(#79907c73e2)"><g clip-path="url(#c5edfbd6be)"><rect x="-116.205" width="191.16" fill="#333367" height="156.599998" y="-112.925" fill-opacity="1"/></g></g></g></g></g></g><g clip-path="url(#c9d6066144)"><g clip-path="url(#d845528d40)"><g transform="matrix(1, 0, 0, 1, 95, 88)"><g clip-path="url(#af837fd7b7)"><g clip-path="url(#4346b308b6)"><g clip-path="url(#f714ff2f28)"><rect x="-124.205" width="191.16" fill="#333367" height="156.599998" y="-111.925" fill-opacity="1"/></g></g></g></g></g></g><g clip-path="url(#857cfada11)"><g clip-path="url(#a89166d2a5)"><g transform="matrix(1, 0, 0, 1, 71, 89)"><g clip-path="url(#851b6442ec)"><g clip-path="url(#0a228210b3)"><g clip-path="url(#42bc77c624)"><rect x="-100.205" width="191.16" fill="#333367" height="156.599998" y="-112.925" fill-opacity="1"/></g></g></g></g></g></g><g clip-path="url(#dbfcb69a5f)"><g clip-path="url(#d4ace859d1)"><g transform="matrix(1, 0, 0, 1, 46, 89)"><g clip-path="url(#ab69858d5c)"><g clip-path="url(#380caca470)"><g clip-path="url(#51e23ef4bb)"><rect x="-75.205" width="191.16" fill="#333367" height="156.599998" y="-112.925" fill-opacity="1"/></g></g></g></g></g></g><g clip-path="url(#71d8018e41)"><g clip-path="url(#e6cdaa9f00)"><g transform="matrix(1, 0, 0, 1, 15, 88)"><g clip-path="url(#1f052d2551)"><g clip-path="url(#418cc00e28)"><g clip-path="url(#d35353dca7)"><rect x="-44.205" width="191.16" fill="#333367" height="156.599998" y="-111.925" fill-opacity="1"/></g></g></g></g></g></g><g clip-path="url(#8018949d20)"><g clip-path="url(#4a8c4155df)"><g transform="matrix(1, 0, 0, 1, 63, 88)"><g clip-path="url(#dac95bfd42)"><g clip-path="url(#cf25dd62b2)"><g clip-path="url(#11ce31dad5)"><rect x="-92.205" width="191.16" fill="#333367" height="156.599998" y="-111.925" fill-opacity="1"/></g></g></g></g></g></g><g clip-path="url(#477474fbd8)"><g clip-path="url(#6a3522a916)"><g transform="matrix(1, 0, 0, 1, 5, 80)"><g clip-path="url(#3c019f57e6)"><g clip-path="url(#b9831aaffe)"><g clip-path="url(#e8f74bcf47)"><rect x="-34.205" width="191.16" fill="#333367" height="156.599998" y="-103.925" fill-opacity="1"/></g></g></g></g></g></g><g clip-path="url(#85d13f45ce)"><g clip-path="url(#076f46a0e6)"><g transform="matrix(1, 0, 0, 1, 103, 88)"><g clip-path="url(#ef1c75f3bf)"><g clip-path="url(#f570c643ae)"><g clip-path="url(#158bf514d2)"><rect x="-132.205" width="191.16" fill="#333367" height="156.599998" y="-111.925" fill-opacity="1"/></g></g></g></g></g></g><g clip-path="url(#b5c7df1aff)"><g clip-path="url(#c7a3fc1630)"><g transform="matrix(1, 0, 0, 1, 82, 4)"><g clip-path="url(#3af7377724)"><g clip-path="url(#3e8e14e94e)"><g clip-path="url(#fe2c84caa5)"><rect x="-111.205" width="191.16" fill="#333367" height="156.599998" y="-27.925" fill-opacity="1"/></g></g></g></g></g></g><g clip-path="url(#11e8f8a203)"><g clip-path="url(#cc6a990da1)"><g transform="matrix(1, 0, 0, 1, 106, 4)"><g clip-path="url(#af24d80684)"><g clip-path="url(#07aa665a6f)"><g clip-path="url(#f74e756ec1)"><rect x="-135.205" width="191.16" fill="#333367" height="156.599998" y="-27.925" fill-opacity="1"/></g></g></g></g></g></g><g clip-path="url(#02da8ff9a2)"><g clip-path="url(#671a7617f6)"><g transform="matrix(1, 0, 0, 1, 82, 38)"><g clip-path="url(#6bd4bb5b7b)"><g clip-path="url(#209ecfa4bf)"><g clip-path="url(#9f024d362b)"><rect x="-111.205" width="191.16" fill="#333367" height="156.599998" y="-61.925" fill-opacity="1"/></g></g></g></g></g></g><g clip-path="url(#85ff214970)"><g clip-path="url(#3602bee861)"><g transform="matrix(1, 0, 0, 1, 106, 38)"><g clip-path="url(#4ca6991605)"><g clip-path="url(#0b13a251ba)"><g clip-path="url(#25dee54ad9)"><rect x="-135.205" width="191.16" fill="#333367" height="156.599998" y="-61.925" fill-opacity="1"/></g></g></g></g></g></g></svg>