<?xml version="1.0" encoding="UTF-8"?>
<svg id="Layer_1" data-name="Layer 1" xmlns="http://www.w3.org/2000/svg" viewBox="0 0 882.81 284.46">
  <defs>
    <style>
      .cls-1 {
        fill: #fff;
      }
    </style>
  </defs>
  <path class="cls-1" d="M142.18,32.3c60.64,0,109.98,49.34,109.98,109.98s-49.34,109.98-109.98,109.98-109.98-49.34-109.98-109.98,49.34-109.98,109.98-109.98M142.18.11C63.65.11,0,63.76,0,142.29s63.65,142.18,142.18,142.18,142.18-63.65,142.18-142.18S220.7.11,142.18.11h0Z"/>
  <polygon class="cls-1" points="846.72 278.01 741.91 71.22 637.15 278.01 601.06 278.01 741.9 0 882.81 278.01 846.72 278.01"/>
  <path class="cls-1" d="M432.09,38.93c38.69,0,59.79,6.72,80.59,25.69,21.56,19.88,33.44,47.59,33.44,78.02s-11.48,56.14-32.37,75.87c-20.85,19.77-42.98,27.12-81.66,27.12h-43.38V38.93h43.38M432.09,6.74h-75.57v271.09h75.57c40.95,0,73.48-7.19,103.81-35.96,27.79-26.25,42.41-61.85,42.41-99.23s-14.99-75.15-43.87-101.75c-30.33-27.69-62.13-34.16-102.35-34.16h0Z"/>
</svg>