<svg xmlns="http://www.w3.org/2000/svg" xmlns:xlink="http://www.w3.org/1999/xlink" width="461" zoomAndPan="magnify" viewBox="0 0 345.75 64.499998" height="86" preserveAspectRatio="xMidYMid meet" version="1.0"><defs><clipPath id="c1e3d4fcc7"><path d="M 151.964844 4.941406 L 165.511719 4.941406 L 165.511719 18.488281 L 151.964844 18.488281 Z M 151.964844 4.941406 " clip-rule="nonzero"/></clipPath><clipPath id="47e4687a20"><path d="M 158.734375 6.113281 C 161.820312 6.113281 164.339844 8.625 164.339844 11.71875 C 164.339844 14.816406 161.828125 17.324219 158.734375 17.324219 C 155.636719 17.324219 153.125 14.816406 153.125 11.71875 C 153.125 8.625 155.648438 6.113281 158.734375 6.113281 M 158.734375 4.972656 C 155 4.972656 151.984375 7.988281 151.984375 11.71875 C 151.984375 15.449219 155 18.464844 158.734375 18.464844 C 162.464844 18.464844 165.480469 15.449219 165.480469 11.71875 C 165.480469 7.988281 162.464844 4.972656 158.734375 4.972656 " clip-rule="nonzero"/></clipPath><clipPath id="b3103b9b91"><path d="M 0.964844 0.941406 L 14.511719 0.941406 L 14.511719 14.488281 L 0.964844 14.488281 Z M 0.964844 0.941406 " clip-rule="nonzero"/></clipPath><clipPath id="42d788bf66"><path d="M 7.734375 2.113281 C 10.820312 2.113281 13.339844 4.625 13.339844 7.71875 C 13.339844 10.816406 10.828125 13.324219 7.734375 13.324219 C 4.636719 13.324219 2.125 10.816406 2.125 7.71875 C 2.125 4.625 4.648438 2.113281 7.734375 2.113281 M 7.734375 0.972656 C 4 0.972656 0.984375 3.988281 0.984375 7.71875 C 0.984375 11.449219 4 14.464844 7.734375 14.464844 C 11.464844 14.464844 14.480469 11.449219 14.480469 7.71875 C 14.480469 3.988281 11.464844 0.972656 7.734375 0.972656 " clip-rule="nonzero"/></clipPath><clipPath id="4c6ab3e70b"><rect x="0" width="15" y="0" height="15"/></clipPath><clipPath id="81e4076b80"><path d="M 180.339844 4.941406 L 193.335938 4.941406 L 193.335938 18.214844 L 180.339844 18.214844 Z M 180.339844 4.941406 " clip-rule="nonzero"/></clipPath><clipPath id="842cedab6b"><path d="M 191.984375 18.160156 L 186.804688 7.570312 L 181.625 18.160156 L 180.34375 18.160156 L 186.804688 4.960938 L 193.265625 18.160156 Z M 191.984375 18.160156 " clip-rule="nonzero"/></clipPath><clipPath id="2bbb7bbfe7"><path d="M 0.339844 0.941406 L 13.335938 0.941406 L 13.335938 14.214844 L 0.339844 14.214844 Z M 0.339844 0.941406 " clip-rule="nonzero"/></clipPath><clipPath id="5c7e5eacb2"><path d="M 11.984375 14.160156 L 6.804688 3.570312 L 1.625 14.160156 L 0.34375 14.160156 L 6.804688 0.960938 L 13.265625 14.160156 Z M 11.984375 14.160156 " clip-rule="nonzero"/></clipPath><clipPath id="738618038d"><rect x="0" width="14" y="0" height="15"/></clipPath><clipPath id="61de00ceb0"><path d="M 168.621094 5.21875 L 179.238281 5.21875 L 179.238281 18.214844 L 168.621094 18.214844 Z M 168.621094 5.21875 " clip-rule="nonzero"/></clipPath><clipPath id="c9096b0a45"><path d="M 172.238281 6.429688 C 174.164062 6.429688 175.265625 6.789062 176.316406 7.75 C 177.417969 8.761719 178.03125 10.179688 178.03125 11.738281 C 178.03125 13.226562 177.449219 14.605469 176.375 15.617188 C 175.304688 16.632812 174.183594 17.007812 172.238281 17.007812 L 169.796875 17.007812 L 169.796875 6.429688 Z M 172.238281 5.289062 L 168.644531 5.289062 L 168.644531 18.148438 L 172.238281 18.148438 C 174.183594 18.148438 175.722656 17.8125 177.167969 16.441406 C 178.488281 15.191406 179.183594 13.503906 179.183594 11.730469 C 179.183594 9.882812 178.46875 8.15625 177.101562 6.894531 C 175.660156 5.578125 174.152344 5.277344 172.238281 5.277344 " clip-rule="nonzero"/></clipPath><clipPath id="2e3c9632bf"><path d="M 0.628906 0.238281 L 11.238281 0.238281 L 11.238281 13.214844 L 0.628906 13.214844 Z M 0.628906 0.238281 " clip-rule="nonzero"/></clipPath><clipPath id="ace60878d4"><path d="M 4.238281 1.429688 C 6.164062 1.429688 7.265625 1.789062 8.316406 2.75 C 9.417969 3.761719 10.03125 5.179688 10.03125 6.738281 C 10.03125 8.226562 9.449219 9.605469 8.375 10.617188 C 7.304688 11.632812 6.183594 12.007812 4.238281 12.007812 L 1.796875 12.007812 L 1.796875 1.429688 Z M 4.238281 0.289062 L 0.644531 0.289062 L 0.644531 13.148438 L 4.238281 13.148438 C 6.183594 13.148438 7.722656 12.8125 9.167969 11.441406 C 10.488281 10.191406 11.183594 8.503906 11.183594 6.730469 C 11.183594 4.882812 10.46875 3.15625 9.101562 1.894531 C 7.660156 0.578125 6.152344 0.277344 4.238281 0.277344 " clip-rule="nonzero"/></clipPath><clipPath id="c756a0f2d4"><rect x="0" width="12" y="0" height="14"/></clipPath><clipPath id="ca1e8448c7"><path d="M 6.167969 34.671875 L 9.671875 34.671875 L 9.671875 58.4375 L 6.167969 58.4375 Z M 6.167969 34.671875 " clip-rule="nonzero"/></clipPath><clipPath id="36500ee1a8"><path d="M 0.167969 0.671875 L 3.671875 0.671875 L 3.671875 24.4375 L 0.167969 24.4375 Z M 0.167969 0.671875 " clip-rule="nonzero"/></clipPath><clipPath id="92865e7e6b"><rect x="0" width="4" y="0" height="25"/></clipPath><clipPath id="7338677319"><path d="M 18.480469 34.550781 L 38.1875 34.550781 L 38.1875 58.441406 L 18.480469 58.441406 Z M 18.480469 34.550781 " clip-rule="nonzero"/></clipPath><clipPath id="c783abc18d"><path d="M 34.824219 52.640625 L 21.199219 34.671875 L 18.542969 34.671875 L 18.542969 58.4375 L 21.777344 58.4375 L 21.777344 40.375 L 35.460938 58.4375 L 38.058594 58.4375 L 38.058594 34.671875 L 34.824219 34.671875 Z M 34.824219 52.640625 " clip-rule="nonzero"/></clipPath><clipPath id="190685d9bb"><path d="M 0.480469 0.550781 L 20.121094 0.550781 L 20.121094 24.441406 L 0.480469 24.441406 Z M 0.480469 0.550781 " clip-rule="nonzero"/></clipPath><clipPath id="058d037770"><path d="M 16.824219 18.640625 L 3.199219 0.671875 L 0.542969 0.671875 L 0.542969 24.4375 L 3.777344 24.4375 L 3.777344 6.375 L 17.460938 24.4375 L 20.058594 24.4375 L 20.058594 0.671875 L 16.824219 0.671875 Z M 16.824219 18.640625 " clip-rule="nonzero"/></clipPath><clipPath id="d4b28189c5"><rect x="0" width="21" y="0" height="25"/></clipPath><clipPath id="8656c8bf87"><path d="M 45.742188 34.28125 L 63.964844 34.28125 L 63.964844 58.710938 L 45.742188 58.710938 Z M 45.742188 34.28125 " clip-rule="nonzero"/></clipPath><clipPath id="124687538c"><path d="M 62.300781 47.886719 C 61.199219 46.894531 59.523438 46.171875 57.28125 45.695312 L 53.707031 44.953125 C 52.289062 44.664062 51.277344 44.226562 50.671875 43.671875 C 50.066406 43.117188 49.757812 42.363281 49.757812 41.410156 C 49.757812 40.574219 49.976562 39.859375 50.414062 39.246094 C 50.851562 38.628906 51.484375 38.164062 52.300781 37.828125 C 53.113281 37.488281 54.074219 37.320312 55.175781 37.320312 C 56.566406 37.320312 57.828125 37.527344 58.957031 37.945312 C 60.089844 38.363281 61.128906 38.996094 62.09375 39.851562 L 63.246094 37.191406 C 62.609375 36.585938 61.875 36.070312 61.03125 35.644531 C 60.1875 35.214844 59.273438 34.898438 58.304688 34.679688 C 57.332031 34.460938 56.296875 34.363281 55.214844 34.363281 C 53.460938 34.363281 51.921875 34.660156 50.582031 35.238281 C 49.242188 35.8125 48.191406 36.65625 47.425781 37.726562 C 46.664062 38.800781 46.285156 40.070312 46.285156 41.5 C 46.285156 43.253906 46.8125 44.644531 47.855469 45.675781 C 48.894531 46.707031 50.492188 47.453125 52.625 47.898438 L 56.238281 48.644531 C 57.25 48.839844 58.074219 49.097656 58.699219 49.398438 C 59.324219 49.695312 59.78125 50.0625 60.070312 50.488281 C 60.355469 50.914062 60.484375 51.429688 60.484375 52.035156 C 60.484375 53.136719 60.03125 54.03125 59.117188 54.714844 C 58.203125 55.398438 56.792969 55.746094 54.890625 55.746094 C 53.808594 55.746094 52.804688 55.648438 51.890625 55.460938 C 50.980469 55.269531 50.105469 54.984375 49.292969 54.597656 C 48.480469 54.210938 47.695312 53.742188 46.929688 53.175781 L 45.820312 55.945312 C 46.535156 56.53125 47.367188 57.027344 48.300781 57.445312 C 49.234375 57.859375 50.253906 58.179688 51.367188 58.386719 C 52.476562 58.59375 53.660156 58.703125 54.890625 58.703125 C 56.753906 58.703125 58.363281 58.417969 59.710938 57.839844 C 61.0625 57.265625 62.101562 56.460938 62.847656 55.410156 C 63.589844 54.359375 63.957031 53.15625 63.957031 51.789062 C 63.957031 50.152344 63.402344 48.832031 62.300781 47.839844 " clip-rule="nonzero"/></clipPath><clipPath id="cf07a5914b"><path d="M 0.742188 0.292969 L 18.964844 0.292969 L 18.964844 24.710938 L 0.742188 24.710938 Z M 0.742188 0.292969 " clip-rule="nonzero"/></clipPath><clipPath id="e9f2856401"><path d="M 17.300781 13.886719 C 16.199219 12.894531 14.523438 12.171875 12.28125 11.695312 L 8.707031 10.953125 C 7.289062 10.664062 6.277344 10.226562 5.671875 9.671875 C 5.066406 9.117188 4.757812 8.363281 4.757812 7.410156 C 4.757812 6.574219 4.976562 5.859375 5.414062 5.246094 C 5.851562 4.628906 6.484375 4.164062 7.300781 3.828125 C 8.113281 3.488281 9.074219 3.320312 10.175781 3.320312 C 11.566406 3.320312 12.828125 3.527344 13.957031 3.945312 C 15.089844 4.363281 16.128906 4.996094 17.09375 5.851562 L 18.246094 3.191406 C 17.609375 2.585938 16.875 2.070312 16.03125 1.644531 C 15.1875 1.214844 14.273438 0.898438 13.304688 0.679688 C 12.332031 0.460938 11.296875 0.363281 10.214844 0.363281 C 8.460938 0.363281 6.921875 0.660156 5.582031 1.238281 C 4.242188 1.8125 3.191406 2.65625 2.425781 3.726562 C 1.664062 4.800781 1.285156 6.070312 1.285156 7.5 C 1.285156 9.253906 1.8125 10.644531 2.855469 11.675781 C 3.894531 12.707031 5.492188 13.453125 7.625 13.898438 L 11.238281 14.644531 C 12.25 14.839844 13.074219 15.097656 13.699219 15.398438 C 14.324219 15.695312 14.78125 16.0625 15.070312 16.488281 C 15.355469 16.914062 15.484375 17.429688 15.484375 18.035156 C 15.484375 19.136719 15.03125 20.03125 14.117188 20.714844 C 13.203125 21.398438 11.792969 21.746094 9.890625 21.746094 C 8.808594 21.746094 7.804688 21.648438 6.890625 21.460938 C 5.980469 21.269531 5.105469 20.984375 4.292969 20.597656 C 3.480469 20.210938 2.695312 19.742188 1.929688 19.175781 L 0.820312 21.945312 C 1.535156 22.53125 2.367188 23.027344 3.300781 23.445312 C 4.234375 23.859375 5.253906 24.179688 6.367188 24.386719 C 7.476562 24.59375 8.660156 24.703125 9.890625 24.703125 C 11.753906 24.703125 13.363281 24.417969 14.710938 23.839844 C 16.0625 23.265625 17.101562 22.460938 17.847656 21.410156 C 18.589844 20.359375 18.957031 19.15625 18.957031 17.789062 C 18.957031 16.152344 18.402344 14.832031 17.300781 13.839844 " clip-rule="nonzero"/></clipPath><clipPath id="e40b22fb8a"><rect x="0" width="19" y="0" height="25"/></clipPath><clipPath id="c03a7e19ba"><path d="M 71.253906 34.550781 L 89.203125 34.550781 L 89.203125 58.441406 L 71.253906 58.441406 Z M 71.253906 34.550781 " clip-rule="nonzero"/></clipPath><clipPath id="d5601245b7"><path d="M 84.46875 45.269531 C 83.605469 46.023438 82.328125 46.398438 80.640625 46.398438 L 74.816406 46.398438 L 74.816406 37.46875 L 80.648438 37.46875 C 82.335938 37.46875 83.605469 37.847656 84.480469 38.601562 C 85.351562 39.355469 85.78125 40.457031 85.78125 41.925781 C 85.78125 43.414062 85.34375 44.523438 84.480469 45.277344 M 85.542969 35.535156 C 84.351562 34.957031 82.890625 34.671875 81.15625 34.671875 L 71.300781 34.671875 L 71.300781 58.4375 L 74.804688 58.4375 L 74.804688 49.199219 L 81.144531 49.199219 C 82.871094 49.199219 84.339844 48.910156 85.53125 48.335938 C 86.722656 47.757812 87.625 46.925781 88.25 45.835938 C 88.875 44.742188 89.171875 43.433594 89.171875 41.90625 C 89.171875 40.375 88.867188 39.078125 88.25 37.996094 C 87.636719 36.914062 86.722656 36.101562 85.53125 35.535156 " clip-rule="nonzero"/></clipPath><clipPath id="4efe508d30"><path d="M 0.253906 0.550781 L 18.203125 0.550781 L 18.203125 24.441406 L 0.253906 24.441406 Z M 0.253906 0.550781 " clip-rule="nonzero"/></clipPath><clipPath id="e61cc7caf6"><path d="M 13.46875 11.269531 C 12.605469 12.023438 11.328125 12.398438 9.640625 12.398438 L 3.816406 12.398438 L 3.816406 3.46875 L 9.648438 3.46875 C 11.335938 3.46875 12.605469 3.847656 13.480469 4.601562 C 14.351562 5.355469 14.78125 6.457031 14.78125 7.925781 C 14.78125 9.414062 14.34375 10.523438 13.480469 11.277344 M 14.542969 1.535156 C 13.351562 0.957031 11.890625 0.671875 10.15625 0.671875 L 0.300781 0.671875 L 0.300781 24.4375 L 3.804688 24.4375 L 3.804688 15.199219 L 10.144531 15.199219 C 11.871094 15.199219 13.339844 14.910156 14.53125 14.335938 C 15.722656 13.757812 16.625 12.925781 17.25 11.835938 C 17.875 10.742188 18.171875 9.433594 18.171875 7.90625 C 18.171875 6.375 17.867188 5.078125 17.25 3.996094 C 16.636719 2.914062 15.722656 2.101562 14.53125 1.535156 " clip-rule="nonzero"/></clipPath><clipPath id="f14b3ea262"><rect x="0" width="19" y="0" height="25"/></clipPath><clipPath id="a66d130e42"><path d="M 96.328125 34.671875 L 99.832031 34.671875 L 99.832031 58.4375 L 96.328125 58.4375 Z M 96.328125 34.671875 " clip-rule="nonzero"/></clipPath><clipPath id="fa908192c7"><path d="M 0.328125 0.671875 L 3.832031 0.671875 L 3.832031 24.4375 L 0.328125 24.4375 Z M 0.328125 0.671875 " clip-rule="nonzero"/></clipPath><clipPath id="42bcd80c24"><rect x="0" width="4" y="0" height="25"/></clipPath><clipPath id="fd6e84e497"><path d="M 108.636719 34.550781 L 128 34.550781 L 128 58.574219 L 108.636719 58.574219 Z M 108.636719 34.550781 " clip-rule="nonzero"/></clipPath><clipPath id="8cff1d7ee4"><path d="M 112.203125 45.992188 L 112.203125 37.46875 L 117.96875 37.46875 C 119.675781 37.46875 120.964844 37.828125 121.851562 38.550781 C 122.734375 39.273438 123.160156 40.328125 123.160156 41.714844 C 123.160156 43.136719 122.722656 44.195312 121.851562 44.921875 C 120.976562 45.644531 119.675781 46.003906 117.96875 46.003906 Z M 122.066406 48.722656 C 121.78125 48.523438 121.472656 48.375 121.136719 48.265625 C 121.761719 48.136719 122.347656 47.949219 122.882812 47.710938 C 124.082031 47.175781 124.996094 46.378906 125.628906 45.347656 C 126.265625 44.316406 126.574219 43.074219 126.574219 41.636719 C 126.574219 39.414062 125.878906 37.6875 124.480469 36.476562 C 123.082031 35.265625 121.105469 34.660156 118.546875 34.660156 L 108.703125 34.660156 L 108.703125 58.4375 L 112.203125 58.4375 L 112.203125 48.632812 L 116.015625 48.632812 C 116.667969 48.632812 117.234375 48.691406 117.722656 48.820312 C 118.207031 48.949219 118.632812 49.167969 119 49.496094 C 119.367188 49.824219 119.714844 50.28125 120.035156 50.867188 L 124.152344 58.445312 L 127.992188 58.445312 L 123.875 50.894531 C 123.339844 49.902344 122.734375 49.1875 122.066406 48.742188 " clip-rule="nonzero"/></clipPath><clipPath id="6f1f1671c0"><path d="M 0.636719 0.550781 L 20 0.550781 L 20 24.574219 L 0.636719 24.574219 Z M 0.636719 0.550781 " clip-rule="nonzero"/></clipPath><clipPath id="c9c6fa7196"><path d="M 4.203125 11.992188 L 4.203125 3.46875 L 9.96875 3.46875 C 11.675781 3.46875 12.964844 3.828125 13.851562 4.550781 C 14.734375 5.273438 15.160156 6.328125 15.160156 7.714844 C 15.160156 9.136719 14.722656 10.195312 13.851562 10.921875 C 12.976562 11.644531 11.675781 12.003906 9.96875 12.003906 Z M 14.066406 14.722656 C 13.78125 14.523438 13.472656 14.375 13.136719 14.265625 C 13.761719 14.136719 14.347656 13.949219 14.882812 13.710938 C 16.082031 13.175781 16.996094 12.378906 17.628906 11.347656 C 18.265625 10.316406 18.574219 9.074219 18.574219 7.636719 C 18.574219 5.414062 17.878906 3.6875 16.480469 2.476562 C 15.082031 1.265625 13.105469 0.660156 10.546875 0.660156 L 0.703125 0.660156 L 0.703125 24.4375 L 4.203125 24.4375 L 4.203125 14.632812 L 8.015625 14.632812 C 8.667969 14.632812 9.234375 14.691406 9.722656 14.820312 C 10.207031 14.949219 10.632812 15.167969 11 15.496094 C 11.367188 15.824219 11.714844 16.28125 12.035156 16.867188 L 16.152344 24.445312 L 19.992188 24.445312 L 15.875 16.894531 C 15.339844 15.902344 14.734375 15.1875 14.066406 14.742188 " clip-rule="nonzero"/></clipPath><clipPath id="2e931701c2"><rect x="0" width="20" y="0" height="25"/></clipPath><clipPath id="57c754c526"><path d="M 157.453125 34.671875 L 177.777344 34.671875 L 177.777344 37.597656 L 157.453125 37.597656 Z M 165.878906 37.597656 L 169.351562 37.597656 L 169.351562 58.4375 L 165.878906 58.4375 Z M 165.878906 37.597656 " clip-rule="nonzero"/></clipPath><clipPath id="c41e428fa1"><path d="M 0.453125 0.671875 L 20.777344 0.671875 L 20.777344 3.597656 L 0.453125 3.597656 Z M 8.878906 3.597656 L 12.351562 3.597656 L 12.351562 24.4375 L 8.878906 24.4375 Z M 8.878906 3.597656 " clip-rule="nonzero"/></clipPath><clipPath id="4ae07efecc"><rect x="0" width="21" y="0" height="25"/></clipPath><clipPath id="82fd72df85"><path d="M 184.046875 34.671875 L 187.550781 34.671875 L 187.550781 58.4375 L 184.046875 58.4375 Z M 184.046875 34.671875 " clip-rule="nonzero"/></clipPath><clipPath id="6ca534f777"><path d="M 0.046875 0.671875 L 3.550781 0.671875 L 3.550781 24.4375 L 0.046875 24.4375 Z M 0.046875 0.671875 " clip-rule="nonzero"/></clipPath><clipPath id="717e4d5fad"><rect x="0" width="4" y="0" height="25"/></clipPath><clipPath id="f8b06c3573"><path d="M 195.554688 34.28125 L 217.957031 34.28125 L 217.957031 58.847656 L 195.554688 58.847656 Z M 195.554688 34.28125 " clip-rule="nonzero"/></clipPath><clipPath id="5071411822"><path d="M 213.328125 51.492188 C 212.734375 52.859375 211.882812 53.902344 210.769531 54.625 C 209.660156 55.351562 208.308594 55.707031 206.742188 55.707031 C 205.171875 55.707031 203.824219 55.351562 202.710938 54.625 C 201.601562 53.902344 200.746094 52.859375 200.152344 51.472656 C 199.558594 50.082031 199.257812 48.445312 199.257812 46.527344 C 199.257812 44.59375 199.558594 42.945312 200.152344 41.578125 C 200.746094 40.207031 201.601562 39.167969 202.710938 38.460938 C 203.824219 37.757812 205.171875 37.398438 206.742188 37.398438 C 208.339844 37.398438 209.6875 37.757812 210.800781 38.460938 C 211.910156 39.167969 212.765625 40.207031 213.351562 41.578125 C 213.933594 42.945312 214.222656 44.605469 214.222656 46.527344 C 214.222656 48.453125 213.925781 50.109375 213.328125 51.480469 M 214.847656 37.636719 C 213.875 36.585938 212.695312 35.773438 211.324219 35.207031 C 209.957031 34.640625 208.429688 34.363281 206.742188 34.363281 C 205.035156 34.363281 203.496094 34.640625 202.125 35.207031 C 200.757812 35.773438 199.585938 36.585938 198.625 37.648438 C 197.660156 38.710938 196.917969 40 196.402344 41.488281 C 195.886719 42.976562 195.628906 44.664062 195.628906 46.527344 C 195.628906 48.394531 195.886719 50.070312 196.402344 51.570312 C 196.917969 53.070312 197.671875 54.347656 198.644531 55.429688 C 199.617188 56.511719 200.796875 57.335938 202.167969 57.890625 C 203.535156 58.445312 205.0625 58.734375 206.75 58.734375 C 208.4375 58.734375 209.964844 58.457031 211.335938 57.890625 C 212.703125 57.324219 213.886719 56.511719 214.859375 55.429688 C 215.832031 54.347656 216.585938 53.058594 217.101562 51.550781 C 217.617188 50.042969 217.875 48.355469 217.875 46.488281 C 217.875 44.625 217.617188 42.945312 217.101562 41.449219 C 216.585938 39.949219 215.839844 38.679688 214.859375 37.617188 " clip-rule="nonzero"/></clipPath><clipPath id="cac5a7881d"><path d="M 0.554688 0.292969 L 22.925781 0.292969 L 22.925781 24.824219 L 0.554688 24.824219 Z M 0.554688 0.292969 " clip-rule="nonzero"/></clipPath><clipPath id="c87c95a694"><path d="M 18.328125 17.492188 C 17.734375 18.859375 16.882812 19.902344 15.769531 20.625 C 14.660156 21.351562 13.308594 21.707031 11.742188 21.707031 C 10.171875 21.707031 8.824219 21.351562 7.710938 20.625 C 6.601562 19.902344 5.746094 18.859375 5.152344 17.472656 C 4.558594 16.082031 4.257812 14.445312 4.257812 12.527344 C 4.257812 10.59375 4.558594 8.945312 5.152344 7.578125 C 5.746094 6.207031 6.601562 5.167969 7.710938 4.460938 C 8.824219 3.757812 10.171875 3.398438 11.742188 3.398438 C 13.339844 3.398438 14.6875 3.757812 15.800781 4.460938 C 16.910156 5.167969 17.765625 6.207031 18.351562 7.578125 C 18.933594 8.945312 19.222656 10.605469 19.222656 12.527344 C 19.222656 14.453125 18.925781 16.109375 18.328125 17.480469 M 19.847656 3.636719 C 18.875 2.585938 17.695312 1.773438 16.324219 1.207031 C 14.957031 0.640625 13.429688 0.363281 11.742188 0.363281 C 10.035156 0.363281 8.496094 0.640625 7.125 1.207031 C 5.757812 1.773438 4.585938 2.585938 3.625 3.648438 C 2.660156 4.710938 1.917969 6 1.402344 7.488281 C 0.886719 8.976562 0.628906 10.664062 0.628906 12.527344 C 0.628906 14.394531 0.886719 16.070312 1.402344 17.570312 C 1.917969 19.070312 2.671875 20.347656 3.644531 21.429688 C 4.617188 22.511719 5.796875 23.335938 7.167969 23.890625 C 8.535156 24.445312 10.0625 24.734375 11.75 24.734375 C 13.4375 24.734375 14.964844 24.457031 16.335938 23.890625 C 17.703125 23.324219 18.886719 22.511719 19.859375 21.429688 C 20.832031 20.347656 21.585938 19.058594 22.101562 17.550781 C 22.617188 16.042969 22.875 14.355469 22.875 12.488281 C 22.875 10.625 22.617188 8.945312 22.101562 7.449219 C 21.585938 5.949219 20.839844 4.679688 19.859375 3.617188 " clip-rule="nonzero"/></clipPath><clipPath id="7e44f5963b"><rect x="0" width="23" y="0" height="25"/></clipPath><clipPath id="15b1fa83df"><path d="M 225.921875 34.550781 L 245.492188 34.550781 L 245.492188 58.441406 L 225.921875 58.441406 Z M 225.921875 34.550781 " clip-rule="nonzero"/></clipPath><clipPath id="5fa9bb7604"><path d="M 242.207031 52.640625 L 228.589844 34.671875 L 225.933594 34.671875 L 225.933594 58.4375 L 229.167969 58.4375 L 229.167969 40.375 L 242.851562 58.4375 L 245.449219 58.4375 L 245.449219 34.671875 L 242.214844 34.671875 Z M 242.207031 52.640625 " clip-rule="nonzero"/></clipPath><clipPath id="841fbb46af"><path d="M 0.921875 0.550781 L 20.492188 0.550781 L 20.492188 24.441406 L 0.921875 24.441406 Z M 0.921875 0.550781 " clip-rule="nonzero"/></clipPath><clipPath id="104014f133"><path d="M 17.207031 18.640625 L 3.589844 0.671875 L 0.933594 0.671875 L 0.933594 24.4375 L 4.167969 24.4375 L 4.167969 6.375 L 17.851562 24.4375 L 20.449219 24.4375 L 20.449219 0.671875 L 17.214844 0.671875 Z M 17.207031 18.640625 " clip-rule="nonzero"/></clipPath><clipPath id="8ebee9fdca"><rect x="0" width="21" y="0" height="25"/></clipPath><clipPath id="a3dd42b47d"><path d="M 132.257812 34.011719 L 156.144531 34.011719 L 156.144531 58.441406 L 132.257812 58.441406 Z M 132.257812 34.011719 " clip-rule="nonzero"/></clipPath><clipPath id="aca1bbd8b5"><path d="M 156.042969 58.417969 C 152.074219 50.320312 148.105469 42.222656 144.148438 34.117188 C 140.199219 42.210938 136.257812 50.320312 132.308594 58.417969 L 135.742188 58.4375 L 144.148438 40.753906 L 152.550781 58.4375 Z M 156.042969 58.417969 " clip-rule="nonzero"/></clipPath><clipPath id="ed8e9e5310"><path d="M 0.257812 0.0546875 L 24.144531 0.0546875 L 24.144531 24.441406 L 0.257812 24.441406 Z M 0.257812 0.0546875 " clip-rule="nonzero"/></clipPath><clipPath id="dadc1782e6"><path d="M 24.042969 24.417969 C 20.074219 16.320312 16.105469 8.222656 12.148438 0.117188 C 8.199219 8.210938 4.257812 16.320312 0.308594 24.417969 L 3.742188 24.4375 L 12.148438 6.753906 L 20.550781 24.4375 Z M 24.042969 24.417969 " clip-rule="nonzero"/></clipPath><clipPath id="fec1ccb065"><rect x="0" width="25" y="0" height="25"/></clipPath><clipPath id="2c716856bd"><path d="M 266.574219 34.640625 L 287.3125 34.640625 L 287.3125 58.453125 L 266.574219 58.453125 Z M 266.574219 34.640625 " clip-rule="nonzero"/></clipPath><clipPath id="3635442b7b"><path d="M 281.394531 53.265625 C 279.933594 54.765625 277.730469 55.507812 274.785156 55.507812 L 270.089844 55.507812 L 270.089844 37.597656 L 274.773438 37.597656 C 277.691406 37.597656 279.894531 38.34375 281.363281 39.820312 C 282.832031 41.300781 283.574219 43.542969 283.574219 46.527344 C 283.574219 49.515625 282.839844 51.757812 281.382812 53.257812 M 281.621094 36.03125 C 279.804688 35.117188 277.582031 34.660156 274.984375 34.660156 L 266.585938 34.660156 L 266.585938 58.4375 L 274.984375 58.4375 C 277.59375 58.4375 279.804688 57.980469 281.621094 57.058594 C 283.4375 56.132812 284.828125 54.792969 285.789062 53.027344 C 286.75 51.261719 287.21875 49.097656 287.21875 46.539062 C 287.21875 43.980469 286.742188 41.816406 285.789062 40.050781 C 284.835938 38.28125 283.445312 36.953125 281.621094 36.039062 " clip-rule="nonzero"/></clipPath><clipPath id="073b06bd1a"><path d="M 0.574219 0.640625 L 21.230469 0.640625 L 21.230469 24.453125 L 0.574219 24.453125 Z M 0.574219 0.640625 " clip-rule="nonzero"/></clipPath><clipPath id="56486a0ce2"><path d="M 15.394531 19.265625 C 13.933594 20.765625 11.730469 21.507812 8.785156 21.507812 L 4.089844 21.507812 L 4.089844 3.597656 L 8.773438 3.597656 C 11.691406 3.597656 13.894531 4.34375 15.363281 5.820312 C 16.832031 7.300781 17.574219 9.542969 17.574219 12.527344 C 17.574219 15.515625 16.839844 17.757812 15.382812 19.257812 M 15.621094 2.03125 C 13.804688 1.117188 11.582031 0.660156 8.984375 0.660156 L 0.585938 0.660156 L 0.585938 24.4375 L 8.984375 24.4375 C 11.59375 24.4375 13.804688 23.980469 15.621094 23.058594 C 17.4375 22.132812 18.828125 20.792969 19.789062 19.027344 C 20.75 17.261719 21.21875 15.097656 21.21875 12.539062 C 21.21875 9.980469 20.742188 7.816406 19.789062 6.050781 C 18.835938 4.28125 17.445312 2.953125 15.621094 2.039062 " clip-rule="nonzero"/></clipPath><clipPath id="d14db122a7"><rect x="0" width="22" y="0" height="25"/></clipPath><clipPath id="df56a38701"><path d="M 317.277344 34.640625 L 339.085938 34.640625 L 339.085938 58.453125 L 317.277344 58.453125 Z M 317.277344 34.640625 " clip-rule="nonzero"/></clipPath><clipPath id="f25ba894ac"><path d="M 339.074219 34.671875 L 335.195312 34.671875 L 328.320312 44.257812 L 321.441406 34.671875 L 317.394531 34.671875 L 326.503906 47.3125 L 326.503906 58.4375 L 329.976562 58.4375 L 329.976562 47.402344 Z M 339.074219 34.671875 " clip-rule="nonzero"/></clipPath><clipPath id="f0edc6cff4"><path d="M 0.277344 0.640625 L 22.085938 0.640625 L 22.085938 24.453125 L 0.277344 24.453125 Z M 0.277344 0.640625 " clip-rule="nonzero"/></clipPath><clipPath id="d50288bea9"><path d="M 22.074219 0.671875 L 18.195312 0.671875 L 11.320312 10.257812 L 4.441406 0.671875 L 0.394531 0.671875 L 9.503906 13.3125 L 9.503906 24.4375 L 12.976562 24.4375 L 12.976562 13.402344 Z M 22.074219 0.671875 " clip-rule="nonzero"/></clipPath><clipPath id="1d5aa46127"><rect x="0" width="23" y="0" height="25"/></clipPath><clipPath id="6a01def500"><path d="M 292.53125 34.105469 L 316.34375 34.105469 L 316.34375 58.453125 L 292.53125 58.453125 Z M 292.53125 34.105469 " clip-rule="nonzero"/></clipPath><clipPath id="2095055fc2"><path d="M 316.300781 58.417969 C 312.332031 50.320312 308.363281 42.222656 304.40625 34.117188 C 300.457031 42.210938 296.515625 50.320312 292.566406 58.417969 L 296 58.4375 L 304.40625 40.753906 L 312.808594 58.4375 Z M 316.300781 58.417969 " clip-rule="nonzero"/></clipPath><clipPath id="9f8e09925a"><path d="M 0.53125 0.105469 L 24.34375 0.105469 L 24.34375 24.453125 L 0.53125 24.453125 Z M 0.53125 0.105469 " clip-rule="nonzero"/></clipPath><clipPath id="5f48e8e788"><path d="M 24.300781 24.417969 C 20.332031 16.320312 16.363281 8.222656 12.40625 0.117188 C 8.457031 8.210938 4.515625 16.320312 0.566406 24.417969 L 4 24.4375 L 12.40625 6.753906 L 20.808594 24.4375 Z M 24.300781 24.417969 " clip-rule="nonzero"/></clipPath><clipPath id="989278c7ed"><rect x="0" width="25" y="0" height="25"/></clipPath></defs><g clip-path="url(#c1e3d4fcc7)"><g clip-path="url(#47e4687a20)"><g transform="matrix(1, 0, 0, 1, 151, 4)"><g clip-path="url(#4c6ab3e70b)"><g clip-path="url(#b3103b9b91)"><g clip-path="url(#42d788bf66)"><rect x="-227.065" width="497.88" fill="#333367" height="92.879997" y="-18.19" fill-opacity="1"/></g></g></g></g></g></g><g clip-path="url(#81e4076b80)"><g clip-path="url(#842cedab6b)"><g transform="matrix(1, 0, 0, 1, 180, 4)"><g clip-path="url(#738618038d)"><g clip-path="url(#2bbb7bbfe7)"><g clip-path="url(#5c7e5eacb2)"><rect x="-256.065" width="497.88" fill="#333367" height="92.879997" y="-18.19" fill-opacity="1"/></g></g></g></g></g></g><g clip-path="url(#61de00ceb0)"><g clip-path="url(#c9096b0a45)"><g transform="matrix(1, 0, 0, 1, 168, 5)"><g clip-path="url(#c756a0f2d4)"><g clip-path="url(#2e3c9632bf)"><g clip-path="url(#ace60878d4)"><rect x="-244.065" width="497.88" fill="#333367" height="92.879997" y="-19.19" fill-opacity="1"/></g></g></g></g></g></g><g clip-path="url(#ca1e8448c7)"><g transform="matrix(1, 0, 0, 1, 6, 34)"><g clip-path="url(#92865e7e6b)"><g clip-path="url(#36500ee1a8)"><rect x="-82.065" width="497.88" fill="#333367" height="92.879997" y="-48.19" fill-opacity="1"/></g></g></g></g><g clip-path="url(#7338677319)"><g clip-path="url(#c783abc18d)"><g transform="matrix(1, 0, 0, 1, 18, 34)"><g clip-path="url(#d4b28189c5)"><g clip-path="url(#190685d9bb)"><g clip-path="url(#058d037770)"><rect x="-94.065" width="497.88" fill="#333367" height="92.879997" y="-48.19" fill-opacity="1"/></g></g></g></g></g></g><g clip-path="url(#8656c8bf87)"><g clip-path="url(#124687538c)"><g transform="matrix(1, 0, 0, 1, 45, 34)"><g clip-path="url(#e40b22fb8a)"><g clip-path="url(#cf07a5914b)"><g clip-path="url(#e9f2856401)"><rect x="-121.065" width="497.88" fill="#333367" height="92.879997" y="-48.19" fill-opacity="1"/></g></g></g></g></g></g><g clip-path="url(#c03a7e19ba)"><g clip-path="url(#d5601245b7)"><g transform="matrix(1, 0, 0, 1, 71, 34)"><g clip-path="url(#f14b3ea262)"><g clip-path="url(#4efe508d30)"><g clip-path="url(#e61cc7caf6)"><rect x="-147.065" width="497.88" fill="#333367" height="92.879997" y="-48.19" fill-opacity="1"/></g></g></g></g></g></g><g clip-path="url(#a66d130e42)"><g transform="matrix(1, 0, 0, 1, 96, 34)"><g clip-path="url(#42bcd80c24)"><g clip-path="url(#fa908192c7)"><rect x="-172.065" width="497.88" fill="#333367" height="92.879997" y="-48.19" fill-opacity="1"/></g></g></g></g><g clip-path="url(#fd6e84e497)"><g clip-path="url(#8cff1d7ee4)"><g transform="matrix(1, 0, 0, 1, 108, 34)"><g clip-path="url(#2e931701c2)"><g clip-path="url(#6f1f1671c0)"><g clip-path="url(#c9c6fa7196)"><rect x="-184.065" width="497.88" fill="#333367" height="92.879997" y="-48.19" fill-opacity="1"/></g></g></g></g></g></g><g clip-path="url(#57c754c526)"><g transform="matrix(1, 0, 0, 1, 157, 34)"><g clip-path="url(#4ae07efecc)"><g clip-path="url(#c41e428fa1)"><rect x="-233.065" width="497.88" fill="#333367" height="92.879997" y="-48.19" fill-opacity="1"/></g></g></g></g><g clip-path="url(#82fd72df85)"><g transform="matrix(1, 0, 0, 1, 184, 34)"><g clip-path="url(#717e4d5fad)"><g clip-path="url(#6ca534f777)"><rect x="-260.065" width="497.88" fill="#333367" height="92.879997" y="-48.19" fill-opacity="1"/></g></g></g></g><g clip-path="url(#f8b06c3573)"><g clip-path="url(#5071411822)"><g transform="matrix(1, 0, 0, 1, 195, 34)"><g clip-path="url(#7e44f5963b)"><g clip-path="url(#cac5a7881d)"><g clip-path="url(#c87c95a694)"><rect x="-271.065" width="497.88" fill="#333367" height="92.879997" y="-48.19" fill-opacity="1"/></g></g></g></g></g></g><g clip-path="url(#15b1fa83df)"><g clip-path="url(#5fa9bb7604)"><g transform="matrix(1, 0, 0, 1, 225, 34)"><g clip-path="url(#8ebee9fdca)"><g clip-path="url(#841fbb46af)"><g clip-path="url(#104014f133)"><rect x="-301.065" width="497.88" fill="#333367" height="92.879997" y="-48.19" fill-opacity="1"/></g></g></g></g></g></g><g clip-path="url(#a3dd42b47d)"><g clip-path="url(#aca1bbd8b5)"><g transform="matrix(1, 0, 0, 1, 132, 34)"><g clip-path="url(#fec1ccb065)"><g clip-path="url(#ed8e9e5310)"><g clip-path="url(#dadc1782e6)"><rect x="-208.065" width="497.88" fill="#333367" height="92.879997" y="-48.19" fill-opacity="1"/></g></g></g></g></g></g><g clip-path="url(#2c716856bd)"><g clip-path="url(#3635442b7b)"><g transform="matrix(1, 0, 0, 1, 266, 34)"><g clip-path="url(#d14db122a7)"><g clip-path="url(#073b06bd1a)"><g clip-path="url(#56486a0ce2)"><rect x="-342.065" width="497.88" fill="#333367" height="92.879997" y="-48.19" fill-opacity="1"/></g></g></g></g></g></g><g clip-path="url(#df56a38701)"><g clip-path="url(#f25ba894ac)"><g transform="matrix(1, 0, 0, 1, 317, 34)"><g clip-path="url(#1d5aa46127)"><g clip-path="url(#f0edc6cff4)"><g clip-path="url(#d50288bea9)"><rect x="-393.065" width="497.88" fill="#333367" height="92.879997" y="-48.19" fill-opacity="1"/></g></g></g></g></g></g><g clip-path="url(#6a01def500)"><g clip-path="url(#2095055fc2)"><g transform="matrix(1, 0, 0, 1, 292, 34)"><g clip-path="url(#989278c7ed)"><g clip-path="url(#9f8e09925a)"><g clip-path="url(#5f48e8e788)"><rect x="-368.065" width="497.88" fill="#333367" height="92.879997" y="-48.19" fill-opacity="1"/></g></g></g></g></g></g></svg>